G04 EAGLE Gerber RS-274X export*
G75*
%MOMM*%
%FSLAX34Y34*%
%LPD*%
%INSilkscreen Bottom*%
%IPPOS*%
%AMOC8*
5,1,8,0,0,1.08239X$1,22.5*%
G01*
%ADD10C,0.101600*%


D10*
X112964Y71628D02*
X115561Y71628D01*
X115660Y71630D01*
X115760Y71636D01*
X115859Y71645D01*
X115957Y71658D01*
X116055Y71675D01*
X116153Y71696D01*
X116249Y71721D01*
X116344Y71749D01*
X116438Y71781D01*
X116531Y71816D01*
X116623Y71855D01*
X116713Y71898D01*
X116801Y71943D01*
X116888Y71993D01*
X116972Y72045D01*
X117055Y72101D01*
X117135Y72159D01*
X117213Y72221D01*
X117288Y72286D01*
X117361Y72354D01*
X117431Y72424D01*
X117499Y72497D01*
X117564Y72572D01*
X117626Y72650D01*
X117684Y72730D01*
X117740Y72813D01*
X117792Y72897D01*
X117842Y72984D01*
X117887Y73072D01*
X117930Y73162D01*
X117969Y73254D01*
X118004Y73347D01*
X118036Y73441D01*
X118064Y73536D01*
X118089Y73632D01*
X118110Y73730D01*
X118127Y73828D01*
X118140Y73926D01*
X118149Y74025D01*
X118155Y74125D01*
X118157Y74224D01*
X118157Y80716D01*
X118155Y80815D01*
X118149Y80915D01*
X118140Y81014D01*
X118127Y81112D01*
X118110Y81210D01*
X118089Y81308D01*
X118064Y81404D01*
X118036Y81499D01*
X118004Y81593D01*
X117969Y81686D01*
X117930Y81778D01*
X117887Y81868D01*
X117842Y81956D01*
X117792Y82043D01*
X117740Y82127D01*
X117684Y82210D01*
X117626Y82290D01*
X117564Y82368D01*
X117499Y82443D01*
X117431Y82516D01*
X117361Y82586D01*
X117288Y82654D01*
X117213Y82719D01*
X117135Y82781D01*
X117055Y82839D01*
X116972Y82895D01*
X116888Y82947D01*
X116801Y82997D01*
X116713Y83042D01*
X116623Y83085D01*
X116531Y83124D01*
X116438Y83159D01*
X116344Y83191D01*
X116249Y83219D01*
X116153Y83244D01*
X116055Y83265D01*
X115957Y83282D01*
X115859Y83295D01*
X115760Y83304D01*
X115660Y83310D01*
X115561Y83312D01*
X112964Y83312D01*
X108599Y83312D02*
X108599Y82014D01*
X108599Y83312D02*
X102108Y83312D01*
X105354Y71628D01*
X366268Y314198D02*
X377952Y314198D01*
X377952Y317444D01*
X377950Y317557D01*
X377944Y317670D01*
X377934Y317783D01*
X377920Y317896D01*
X377903Y318008D01*
X377881Y318119D01*
X377856Y318229D01*
X377826Y318339D01*
X377793Y318447D01*
X377756Y318554D01*
X377716Y318660D01*
X377671Y318764D01*
X377623Y318867D01*
X377572Y318968D01*
X377517Y319067D01*
X377459Y319164D01*
X377397Y319259D01*
X377332Y319352D01*
X377264Y319442D01*
X377193Y319530D01*
X377118Y319616D01*
X377041Y319699D01*
X376961Y319779D01*
X376878Y319856D01*
X376792Y319931D01*
X376704Y320002D01*
X376614Y320070D01*
X376521Y320135D01*
X376426Y320197D01*
X376329Y320255D01*
X376230Y320310D01*
X376129Y320361D01*
X376026Y320409D01*
X375922Y320454D01*
X375816Y320494D01*
X375709Y320531D01*
X375601Y320564D01*
X375491Y320594D01*
X375381Y320619D01*
X375270Y320641D01*
X375158Y320658D01*
X375045Y320672D01*
X374932Y320682D01*
X374819Y320688D01*
X374706Y320690D01*
X374593Y320688D01*
X374480Y320682D01*
X374367Y320672D01*
X374254Y320658D01*
X374142Y320641D01*
X374031Y320619D01*
X373921Y320594D01*
X373811Y320564D01*
X373703Y320531D01*
X373596Y320494D01*
X373490Y320454D01*
X373386Y320409D01*
X373283Y320361D01*
X373182Y320310D01*
X373083Y320255D01*
X372986Y320197D01*
X372891Y320135D01*
X372798Y320070D01*
X372708Y320002D01*
X372620Y319931D01*
X372534Y319856D01*
X372451Y319779D01*
X372371Y319699D01*
X372294Y319616D01*
X372219Y319530D01*
X372148Y319442D01*
X372080Y319352D01*
X372015Y319259D01*
X371953Y319164D01*
X371895Y319067D01*
X371840Y318968D01*
X371789Y318867D01*
X371741Y318764D01*
X371696Y318660D01*
X371656Y318554D01*
X371619Y318447D01*
X371586Y318339D01*
X371556Y318229D01*
X371531Y318119D01*
X371509Y318008D01*
X371492Y317896D01*
X371478Y317783D01*
X371468Y317670D01*
X371462Y317557D01*
X371460Y317444D01*
X371461Y317444D02*
X371461Y314198D01*
X371461Y318093D02*
X366268Y320689D01*
X368864Y325554D02*
X377952Y328151D01*
X368864Y325554D02*
X368864Y332045D01*
X371461Y330098D02*
X366268Y330098D01*
X184912Y441198D02*
X173228Y441198D01*
X184912Y441198D02*
X184912Y444444D01*
X184910Y444557D01*
X184904Y444670D01*
X184894Y444783D01*
X184880Y444896D01*
X184863Y445008D01*
X184841Y445119D01*
X184816Y445229D01*
X184786Y445339D01*
X184753Y445447D01*
X184716Y445554D01*
X184676Y445660D01*
X184631Y445764D01*
X184583Y445867D01*
X184532Y445968D01*
X184477Y446067D01*
X184419Y446164D01*
X184357Y446259D01*
X184292Y446352D01*
X184224Y446442D01*
X184153Y446530D01*
X184078Y446616D01*
X184001Y446699D01*
X183921Y446779D01*
X183838Y446856D01*
X183752Y446931D01*
X183664Y447002D01*
X183574Y447070D01*
X183481Y447135D01*
X183386Y447197D01*
X183289Y447255D01*
X183190Y447310D01*
X183089Y447361D01*
X182986Y447409D01*
X182882Y447454D01*
X182776Y447494D01*
X182669Y447531D01*
X182561Y447564D01*
X182451Y447594D01*
X182341Y447619D01*
X182230Y447641D01*
X182118Y447658D01*
X182005Y447672D01*
X181892Y447682D01*
X181779Y447688D01*
X181666Y447690D01*
X181553Y447688D01*
X181440Y447682D01*
X181327Y447672D01*
X181214Y447658D01*
X181102Y447641D01*
X180991Y447619D01*
X180881Y447594D01*
X180771Y447564D01*
X180663Y447531D01*
X180556Y447494D01*
X180450Y447454D01*
X180346Y447409D01*
X180243Y447361D01*
X180142Y447310D01*
X180043Y447255D01*
X179946Y447197D01*
X179851Y447135D01*
X179758Y447070D01*
X179668Y447002D01*
X179580Y446931D01*
X179494Y446856D01*
X179411Y446779D01*
X179331Y446699D01*
X179254Y446616D01*
X179179Y446530D01*
X179108Y446442D01*
X179040Y446352D01*
X178975Y446259D01*
X178913Y446164D01*
X178855Y446067D01*
X178800Y445968D01*
X178749Y445867D01*
X178701Y445764D01*
X178656Y445660D01*
X178616Y445554D01*
X178579Y445447D01*
X178546Y445339D01*
X178516Y445229D01*
X178491Y445119D01*
X178469Y445008D01*
X178452Y444896D01*
X178438Y444783D01*
X178428Y444670D01*
X178422Y444557D01*
X178420Y444444D01*
X178421Y444444D02*
X178421Y441198D01*
X178421Y445093D02*
X173228Y447689D01*
X173228Y452554D02*
X173228Y456449D01*
X173230Y456548D01*
X173236Y456648D01*
X173245Y456747D01*
X173258Y456845D01*
X173275Y456943D01*
X173296Y457041D01*
X173321Y457137D01*
X173349Y457232D01*
X173381Y457326D01*
X173416Y457419D01*
X173455Y457511D01*
X173498Y457601D01*
X173543Y457689D01*
X173593Y457776D01*
X173645Y457860D01*
X173701Y457943D01*
X173759Y458023D01*
X173821Y458101D01*
X173886Y458176D01*
X173954Y458249D01*
X174024Y458319D01*
X174097Y458387D01*
X174172Y458452D01*
X174250Y458514D01*
X174330Y458572D01*
X174413Y458628D01*
X174497Y458680D01*
X174584Y458730D01*
X174672Y458775D01*
X174762Y458818D01*
X174854Y458857D01*
X174947Y458892D01*
X175041Y458924D01*
X175136Y458952D01*
X175232Y458977D01*
X175330Y458998D01*
X175428Y459015D01*
X175526Y459028D01*
X175625Y459037D01*
X175725Y459043D01*
X175824Y459045D01*
X177123Y459045D01*
X177222Y459043D01*
X177322Y459037D01*
X177421Y459028D01*
X177519Y459015D01*
X177617Y458998D01*
X177715Y458977D01*
X177811Y458952D01*
X177906Y458924D01*
X178000Y458892D01*
X178093Y458857D01*
X178185Y458818D01*
X178275Y458775D01*
X178363Y458730D01*
X178450Y458680D01*
X178534Y458628D01*
X178617Y458572D01*
X178697Y458514D01*
X178775Y458452D01*
X178850Y458387D01*
X178923Y458319D01*
X178993Y458249D01*
X179061Y458176D01*
X179126Y458101D01*
X179188Y458023D01*
X179246Y457943D01*
X179302Y457860D01*
X179354Y457776D01*
X179404Y457689D01*
X179449Y457601D01*
X179492Y457511D01*
X179531Y457419D01*
X179566Y457326D01*
X179598Y457232D01*
X179626Y457137D01*
X179651Y457041D01*
X179672Y456943D01*
X179689Y456845D01*
X179702Y456747D01*
X179711Y456648D01*
X179717Y456548D01*
X179719Y456449D01*
X179719Y452554D01*
X184912Y452554D01*
X184912Y459045D01*
X121412Y337058D02*
X109728Y337058D01*
X121412Y337058D02*
X121412Y340304D01*
X121410Y340417D01*
X121404Y340530D01*
X121394Y340643D01*
X121380Y340756D01*
X121363Y340868D01*
X121341Y340979D01*
X121316Y341089D01*
X121286Y341199D01*
X121253Y341307D01*
X121216Y341414D01*
X121176Y341520D01*
X121131Y341624D01*
X121083Y341727D01*
X121032Y341828D01*
X120977Y341927D01*
X120919Y342024D01*
X120857Y342119D01*
X120792Y342212D01*
X120724Y342302D01*
X120653Y342390D01*
X120578Y342476D01*
X120501Y342559D01*
X120421Y342639D01*
X120338Y342716D01*
X120252Y342791D01*
X120164Y342862D01*
X120074Y342930D01*
X119981Y342995D01*
X119886Y343057D01*
X119789Y343115D01*
X119690Y343170D01*
X119589Y343221D01*
X119486Y343269D01*
X119382Y343314D01*
X119276Y343354D01*
X119169Y343391D01*
X119061Y343424D01*
X118951Y343454D01*
X118841Y343479D01*
X118730Y343501D01*
X118618Y343518D01*
X118505Y343532D01*
X118392Y343542D01*
X118279Y343548D01*
X118166Y343550D01*
X118053Y343548D01*
X117940Y343542D01*
X117827Y343532D01*
X117714Y343518D01*
X117602Y343501D01*
X117491Y343479D01*
X117381Y343454D01*
X117271Y343424D01*
X117163Y343391D01*
X117056Y343354D01*
X116950Y343314D01*
X116846Y343269D01*
X116743Y343221D01*
X116642Y343170D01*
X116543Y343115D01*
X116446Y343057D01*
X116351Y342995D01*
X116258Y342930D01*
X116168Y342862D01*
X116080Y342791D01*
X115994Y342716D01*
X115911Y342639D01*
X115831Y342559D01*
X115754Y342476D01*
X115679Y342390D01*
X115608Y342302D01*
X115540Y342212D01*
X115475Y342119D01*
X115413Y342024D01*
X115355Y341927D01*
X115300Y341828D01*
X115249Y341727D01*
X115201Y341624D01*
X115156Y341520D01*
X115116Y341414D01*
X115079Y341307D01*
X115046Y341199D01*
X115016Y341089D01*
X114991Y340979D01*
X114969Y340868D01*
X114952Y340756D01*
X114938Y340643D01*
X114928Y340530D01*
X114922Y340417D01*
X114920Y340304D01*
X114921Y340304D02*
X114921Y337058D01*
X114921Y340953D02*
X109728Y343549D01*
X116219Y348414D02*
X116219Y352309D01*
X116217Y352408D01*
X116211Y352508D01*
X116202Y352607D01*
X116189Y352705D01*
X116172Y352803D01*
X116151Y352901D01*
X116126Y352997D01*
X116098Y353092D01*
X116066Y353186D01*
X116031Y353279D01*
X115992Y353371D01*
X115949Y353461D01*
X115904Y353549D01*
X115854Y353636D01*
X115802Y353720D01*
X115746Y353803D01*
X115688Y353883D01*
X115626Y353961D01*
X115561Y354036D01*
X115493Y354109D01*
X115423Y354179D01*
X115350Y354247D01*
X115275Y354312D01*
X115197Y354374D01*
X115117Y354432D01*
X115034Y354488D01*
X114950Y354540D01*
X114863Y354590D01*
X114775Y354635D01*
X114685Y354678D01*
X114593Y354717D01*
X114500Y354752D01*
X114406Y354784D01*
X114311Y354812D01*
X114215Y354837D01*
X114117Y354858D01*
X114019Y354875D01*
X113921Y354888D01*
X113822Y354897D01*
X113722Y354903D01*
X113623Y354905D01*
X112974Y354905D01*
X112974Y354906D02*
X112861Y354904D01*
X112748Y354898D01*
X112635Y354888D01*
X112522Y354874D01*
X112410Y354857D01*
X112299Y354835D01*
X112189Y354810D01*
X112079Y354780D01*
X111971Y354747D01*
X111864Y354710D01*
X111758Y354670D01*
X111654Y354625D01*
X111551Y354577D01*
X111450Y354526D01*
X111351Y354471D01*
X111254Y354413D01*
X111159Y354351D01*
X111066Y354286D01*
X110976Y354218D01*
X110888Y354147D01*
X110802Y354072D01*
X110719Y353995D01*
X110639Y353915D01*
X110562Y353832D01*
X110487Y353746D01*
X110416Y353658D01*
X110348Y353568D01*
X110283Y353475D01*
X110221Y353380D01*
X110163Y353283D01*
X110108Y353184D01*
X110057Y353083D01*
X110009Y352980D01*
X109964Y352876D01*
X109924Y352770D01*
X109887Y352663D01*
X109854Y352555D01*
X109824Y352445D01*
X109799Y352335D01*
X109777Y352224D01*
X109760Y352112D01*
X109746Y351999D01*
X109736Y351886D01*
X109730Y351773D01*
X109728Y351660D01*
X109730Y351547D01*
X109736Y351434D01*
X109746Y351321D01*
X109760Y351208D01*
X109777Y351096D01*
X109799Y350985D01*
X109824Y350875D01*
X109854Y350765D01*
X109887Y350657D01*
X109924Y350550D01*
X109964Y350444D01*
X110009Y350340D01*
X110057Y350237D01*
X110108Y350136D01*
X110163Y350037D01*
X110221Y349940D01*
X110283Y349845D01*
X110348Y349752D01*
X110416Y349662D01*
X110487Y349574D01*
X110562Y349488D01*
X110639Y349405D01*
X110719Y349325D01*
X110802Y349248D01*
X110888Y349173D01*
X110976Y349102D01*
X111066Y349034D01*
X111159Y348969D01*
X111254Y348907D01*
X111351Y348849D01*
X111450Y348794D01*
X111551Y348743D01*
X111654Y348695D01*
X111758Y348650D01*
X111864Y348610D01*
X111971Y348573D01*
X112079Y348540D01*
X112189Y348510D01*
X112299Y348485D01*
X112410Y348463D01*
X112522Y348446D01*
X112635Y348432D01*
X112748Y348422D01*
X112861Y348416D01*
X112974Y348414D01*
X116219Y348414D01*
X116362Y348416D01*
X116505Y348422D01*
X116648Y348432D01*
X116790Y348446D01*
X116932Y348463D01*
X117074Y348485D01*
X117215Y348510D01*
X117355Y348540D01*
X117494Y348573D01*
X117632Y348610D01*
X117769Y348651D01*
X117905Y348695D01*
X118040Y348744D01*
X118173Y348796D01*
X118305Y348851D01*
X118435Y348911D01*
X118564Y348974D01*
X118691Y349040D01*
X118815Y349110D01*
X118938Y349183D01*
X119059Y349260D01*
X119178Y349340D01*
X119294Y349423D01*
X119409Y349509D01*
X119520Y349598D01*
X119630Y349691D01*
X119736Y349786D01*
X119840Y349885D01*
X119941Y349986D01*
X120040Y350090D01*
X120135Y350196D01*
X120228Y350306D01*
X120317Y350417D01*
X120403Y350532D01*
X120486Y350648D01*
X120566Y350767D01*
X120643Y350888D01*
X120716Y351010D01*
X120786Y351135D01*
X120852Y351262D01*
X120915Y351391D01*
X120975Y351521D01*
X121030Y351653D01*
X121082Y351786D01*
X121131Y351921D01*
X121175Y352057D01*
X121216Y352194D01*
X121253Y352332D01*
X121286Y352471D01*
X121316Y352611D01*
X121341Y352752D01*
X121363Y352894D01*
X121380Y353036D01*
X121394Y353178D01*
X121404Y353321D01*
X121410Y353464D01*
X121412Y353607D01*
X283859Y170688D02*
X286456Y170688D01*
X286555Y170690D01*
X286655Y170696D01*
X286754Y170705D01*
X286852Y170718D01*
X286950Y170735D01*
X287048Y170756D01*
X287144Y170781D01*
X287239Y170809D01*
X287333Y170841D01*
X287426Y170876D01*
X287518Y170915D01*
X287608Y170958D01*
X287696Y171003D01*
X287783Y171053D01*
X287867Y171105D01*
X287950Y171161D01*
X288030Y171219D01*
X288108Y171281D01*
X288183Y171346D01*
X288256Y171414D01*
X288326Y171484D01*
X288394Y171557D01*
X288459Y171632D01*
X288521Y171710D01*
X288579Y171790D01*
X288635Y171873D01*
X288687Y171957D01*
X288737Y172044D01*
X288782Y172132D01*
X288825Y172222D01*
X288864Y172314D01*
X288899Y172407D01*
X288931Y172501D01*
X288959Y172596D01*
X288984Y172692D01*
X289005Y172790D01*
X289022Y172888D01*
X289035Y172986D01*
X289044Y173085D01*
X289050Y173185D01*
X289052Y173284D01*
X289052Y179776D01*
X289050Y179875D01*
X289044Y179975D01*
X289035Y180074D01*
X289022Y180172D01*
X289005Y180270D01*
X288984Y180368D01*
X288959Y180464D01*
X288931Y180559D01*
X288899Y180653D01*
X288864Y180746D01*
X288825Y180838D01*
X288782Y180928D01*
X288737Y181016D01*
X288687Y181103D01*
X288635Y181187D01*
X288579Y181270D01*
X288521Y181350D01*
X288459Y181428D01*
X288394Y181503D01*
X288326Y181576D01*
X288256Y181646D01*
X288183Y181714D01*
X288108Y181779D01*
X288030Y181841D01*
X287950Y181899D01*
X287867Y181955D01*
X287783Y182007D01*
X287696Y182057D01*
X287608Y182102D01*
X287518Y182145D01*
X287426Y182184D01*
X287333Y182219D01*
X287239Y182251D01*
X287144Y182279D01*
X287048Y182304D01*
X286950Y182325D01*
X286852Y182342D01*
X286754Y182355D01*
X286655Y182364D01*
X286555Y182370D01*
X286456Y182372D01*
X283859Y182372D01*
X279494Y179776D02*
X276248Y182372D01*
X276248Y170688D01*
X273003Y170688D02*
X279494Y170688D01*
X268064Y179776D02*
X264818Y182372D01*
X264818Y170688D01*
X261573Y170688D02*
X268064Y170688D01*
X385459Y221488D02*
X388056Y221488D01*
X388155Y221490D01*
X388255Y221496D01*
X388354Y221505D01*
X388452Y221518D01*
X388550Y221535D01*
X388648Y221556D01*
X388744Y221581D01*
X388839Y221609D01*
X388933Y221641D01*
X389026Y221676D01*
X389118Y221715D01*
X389208Y221758D01*
X389296Y221803D01*
X389383Y221853D01*
X389467Y221905D01*
X389550Y221961D01*
X389630Y222019D01*
X389708Y222081D01*
X389783Y222146D01*
X389856Y222214D01*
X389926Y222284D01*
X389994Y222357D01*
X390059Y222432D01*
X390121Y222510D01*
X390179Y222590D01*
X390235Y222673D01*
X390287Y222757D01*
X390337Y222844D01*
X390382Y222932D01*
X390425Y223022D01*
X390464Y223114D01*
X390499Y223207D01*
X390531Y223301D01*
X390559Y223396D01*
X390584Y223492D01*
X390605Y223590D01*
X390622Y223688D01*
X390635Y223786D01*
X390644Y223885D01*
X390650Y223985D01*
X390652Y224084D01*
X390652Y230576D01*
X390650Y230675D01*
X390644Y230775D01*
X390635Y230874D01*
X390622Y230972D01*
X390605Y231070D01*
X390584Y231168D01*
X390559Y231264D01*
X390531Y231359D01*
X390499Y231453D01*
X390464Y231546D01*
X390425Y231638D01*
X390382Y231728D01*
X390337Y231816D01*
X390287Y231903D01*
X390235Y231987D01*
X390179Y232070D01*
X390121Y232150D01*
X390059Y232228D01*
X389994Y232303D01*
X389926Y232376D01*
X389856Y232446D01*
X389783Y232514D01*
X389708Y232579D01*
X389630Y232641D01*
X389550Y232699D01*
X389467Y232755D01*
X389383Y232807D01*
X389296Y232857D01*
X389208Y232902D01*
X389118Y232945D01*
X389026Y232984D01*
X388933Y233019D01*
X388839Y233051D01*
X388744Y233079D01*
X388648Y233104D01*
X388550Y233125D01*
X388452Y233142D01*
X388354Y233155D01*
X388255Y233164D01*
X388155Y233170D01*
X388056Y233172D01*
X385459Y233172D01*
X381094Y230576D02*
X377848Y233172D01*
X377848Y221488D01*
X374603Y221488D02*
X381094Y221488D01*
X366094Y233172D02*
X365987Y233170D01*
X365881Y233164D01*
X365775Y233154D01*
X365669Y233141D01*
X365563Y233123D01*
X365459Y233102D01*
X365355Y233077D01*
X365252Y233048D01*
X365151Y233016D01*
X365051Y232979D01*
X364952Y232939D01*
X364854Y232896D01*
X364758Y232849D01*
X364664Y232798D01*
X364572Y232744D01*
X364482Y232687D01*
X364394Y232627D01*
X364309Y232563D01*
X364226Y232496D01*
X364145Y232426D01*
X364067Y232354D01*
X363991Y232278D01*
X363919Y232200D01*
X363849Y232119D01*
X363782Y232036D01*
X363718Y231951D01*
X363658Y231863D01*
X363601Y231773D01*
X363547Y231681D01*
X363496Y231587D01*
X363449Y231491D01*
X363406Y231393D01*
X363366Y231294D01*
X363329Y231194D01*
X363297Y231093D01*
X363268Y230990D01*
X363243Y230886D01*
X363222Y230782D01*
X363204Y230676D01*
X363191Y230570D01*
X363181Y230464D01*
X363175Y230358D01*
X363173Y230251D01*
X366094Y233172D02*
X366215Y233170D01*
X366336Y233164D01*
X366456Y233154D01*
X366577Y233141D01*
X366696Y233123D01*
X366816Y233102D01*
X366934Y233077D01*
X367051Y233048D01*
X367168Y233015D01*
X367283Y232979D01*
X367397Y232938D01*
X367510Y232895D01*
X367622Y232847D01*
X367731Y232796D01*
X367839Y232741D01*
X367946Y232683D01*
X368050Y232622D01*
X368152Y232557D01*
X368252Y232489D01*
X368350Y232418D01*
X368446Y232344D01*
X368539Y232267D01*
X368629Y232186D01*
X368717Y232103D01*
X368802Y232017D01*
X368885Y231928D01*
X368964Y231837D01*
X369041Y231743D01*
X369114Y231647D01*
X369184Y231549D01*
X369251Y231448D01*
X369315Y231345D01*
X369376Y231240D01*
X369433Y231133D01*
X369486Y231025D01*
X369536Y230915D01*
X369582Y230803D01*
X369625Y230690D01*
X369664Y230575D01*
X364147Y227979D02*
X364068Y228057D01*
X363992Y228137D01*
X363919Y228220D01*
X363849Y228306D01*
X363782Y228393D01*
X363718Y228484D01*
X363658Y228576D01*
X363600Y228670D01*
X363546Y228767D01*
X363496Y228865D01*
X363449Y228965D01*
X363405Y229066D01*
X363365Y229169D01*
X363329Y229274D01*
X363297Y229379D01*
X363268Y229486D01*
X363243Y229593D01*
X363221Y229702D01*
X363204Y229811D01*
X363190Y229920D01*
X363181Y230030D01*
X363175Y230141D01*
X363173Y230251D01*
X364146Y227979D02*
X369664Y221488D01*
X363173Y221488D01*
X490728Y172786D02*
X490728Y170189D01*
X490730Y170090D01*
X490736Y169990D01*
X490745Y169891D01*
X490758Y169793D01*
X490775Y169695D01*
X490796Y169597D01*
X490821Y169501D01*
X490849Y169406D01*
X490881Y169312D01*
X490916Y169219D01*
X490955Y169127D01*
X490998Y169037D01*
X491043Y168949D01*
X491093Y168862D01*
X491145Y168778D01*
X491201Y168695D01*
X491259Y168615D01*
X491321Y168537D01*
X491386Y168462D01*
X491454Y168389D01*
X491524Y168319D01*
X491597Y168251D01*
X491672Y168186D01*
X491750Y168124D01*
X491830Y168066D01*
X491913Y168010D01*
X491997Y167958D01*
X492084Y167908D01*
X492172Y167863D01*
X492262Y167820D01*
X492354Y167781D01*
X492447Y167746D01*
X492541Y167714D01*
X492636Y167686D01*
X492732Y167661D01*
X492830Y167640D01*
X492928Y167623D01*
X493026Y167610D01*
X493125Y167601D01*
X493225Y167595D01*
X493324Y167593D01*
X499816Y167593D01*
X499915Y167595D01*
X500015Y167601D01*
X500114Y167610D01*
X500212Y167623D01*
X500310Y167640D01*
X500408Y167661D01*
X500504Y167686D01*
X500599Y167714D01*
X500693Y167746D01*
X500786Y167781D01*
X500878Y167820D01*
X500968Y167863D01*
X501056Y167908D01*
X501143Y167958D01*
X501227Y168010D01*
X501310Y168066D01*
X501390Y168124D01*
X501468Y168186D01*
X501543Y168251D01*
X501616Y168319D01*
X501686Y168389D01*
X501754Y168462D01*
X501819Y168537D01*
X501881Y168615D01*
X501939Y168695D01*
X501995Y168778D01*
X502047Y168862D01*
X502097Y168949D01*
X502142Y169037D01*
X502185Y169127D01*
X502224Y169219D01*
X502259Y169311D01*
X502291Y169406D01*
X502319Y169501D01*
X502344Y169597D01*
X502365Y169695D01*
X502382Y169793D01*
X502395Y169891D01*
X502404Y169990D01*
X502410Y170090D01*
X502412Y170189D01*
X502412Y172786D01*
X499816Y177151D02*
X502412Y180396D01*
X490728Y180396D01*
X490728Y177151D02*
X490728Y183642D01*
X490728Y188581D02*
X490728Y191826D01*
X490730Y191939D01*
X490736Y192052D01*
X490746Y192165D01*
X490760Y192278D01*
X490777Y192390D01*
X490799Y192501D01*
X490824Y192611D01*
X490854Y192721D01*
X490887Y192829D01*
X490924Y192936D01*
X490964Y193042D01*
X491009Y193146D01*
X491057Y193249D01*
X491108Y193350D01*
X491163Y193449D01*
X491221Y193546D01*
X491283Y193641D01*
X491348Y193734D01*
X491416Y193824D01*
X491487Y193912D01*
X491562Y193998D01*
X491639Y194081D01*
X491719Y194161D01*
X491802Y194238D01*
X491888Y194313D01*
X491976Y194384D01*
X492066Y194452D01*
X492159Y194517D01*
X492254Y194579D01*
X492351Y194637D01*
X492450Y194692D01*
X492551Y194743D01*
X492654Y194791D01*
X492758Y194836D01*
X492864Y194876D01*
X492971Y194913D01*
X493079Y194946D01*
X493189Y194976D01*
X493299Y195001D01*
X493410Y195023D01*
X493522Y195040D01*
X493635Y195054D01*
X493748Y195064D01*
X493861Y195070D01*
X493974Y195072D01*
X494087Y195070D01*
X494200Y195064D01*
X494313Y195054D01*
X494426Y195040D01*
X494538Y195023D01*
X494649Y195001D01*
X494759Y194976D01*
X494869Y194946D01*
X494977Y194913D01*
X495084Y194876D01*
X495190Y194836D01*
X495294Y194791D01*
X495397Y194743D01*
X495498Y194692D01*
X495597Y194637D01*
X495694Y194579D01*
X495789Y194517D01*
X495882Y194452D01*
X495972Y194384D01*
X496060Y194313D01*
X496146Y194238D01*
X496229Y194161D01*
X496309Y194081D01*
X496386Y193998D01*
X496461Y193912D01*
X496532Y193824D01*
X496600Y193734D01*
X496665Y193641D01*
X496727Y193546D01*
X496785Y193449D01*
X496840Y193350D01*
X496891Y193249D01*
X496939Y193146D01*
X496984Y193042D01*
X497024Y192936D01*
X497061Y192829D01*
X497094Y192721D01*
X497124Y192611D01*
X497149Y192501D01*
X497171Y192390D01*
X497188Y192278D01*
X497202Y192165D01*
X497212Y192052D01*
X497218Y191939D01*
X497220Y191826D01*
X502412Y192476D02*
X502412Y188581D01*
X502412Y192476D02*
X502410Y192577D01*
X502404Y192677D01*
X502394Y192777D01*
X502381Y192877D01*
X502363Y192976D01*
X502342Y193075D01*
X502317Y193172D01*
X502288Y193269D01*
X502255Y193364D01*
X502219Y193458D01*
X502179Y193550D01*
X502136Y193641D01*
X502089Y193730D01*
X502039Y193817D01*
X501985Y193903D01*
X501928Y193986D01*
X501868Y194066D01*
X501805Y194145D01*
X501738Y194221D01*
X501669Y194294D01*
X501597Y194364D01*
X501523Y194432D01*
X501446Y194497D01*
X501366Y194558D01*
X501284Y194617D01*
X501200Y194672D01*
X501114Y194724D01*
X501026Y194773D01*
X500936Y194818D01*
X500844Y194860D01*
X500751Y194898D01*
X500656Y194932D01*
X500561Y194963D01*
X500464Y194990D01*
X500366Y195013D01*
X500267Y195033D01*
X500167Y195048D01*
X500067Y195060D01*
X499967Y195068D01*
X499866Y195072D01*
X499766Y195072D01*
X499665Y195068D01*
X499565Y195060D01*
X499465Y195048D01*
X499365Y195033D01*
X499266Y195013D01*
X499168Y194990D01*
X499071Y194963D01*
X498976Y194932D01*
X498881Y194898D01*
X498788Y194860D01*
X498696Y194818D01*
X498606Y194773D01*
X498518Y194724D01*
X498432Y194672D01*
X498348Y194617D01*
X498266Y194558D01*
X498186Y194497D01*
X498109Y194432D01*
X498035Y194364D01*
X497963Y194294D01*
X497894Y194221D01*
X497827Y194145D01*
X497764Y194066D01*
X497704Y193986D01*
X497647Y193903D01*
X497593Y193817D01*
X497543Y193730D01*
X497496Y193641D01*
X497453Y193550D01*
X497413Y193458D01*
X497377Y193364D01*
X497344Y193269D01*
X497315Y193172D01*
X497290Y193075D01*
X497269Y192976D01*
X497251Y192877D01*
X497238Y192777D01*
X497228Y192677D01*
X497222Y192577D01*
X497220Y192476D01*
X497219Y192476D02*
X497219Y189879D01*
X408376Y302768D02*
X405779Y302768D01*
X408376Y302768D02*
X408475Y302770D01*
X408575Y302776D01*
X408674Y302785D01*
X408772Y302798D01*
X408870Y302815D01*
X408968Y302836D01*
X409064Y302861D01*
X409159Y302889D01*
X409253Y302921D01*
X409346Y302956D01*
X409438Y302995D01*
X409528Y303038D01*
X409616Y303083D01*
X409703Y303133D01*
X409787Y303185D01*
X409870Y303241D01*
X409950Y303299D01*
X410028Y303361D01*
X410103Y303426D01*
X410176Y303494D01*
X410246Y303564D01*
X410314Y303637D01*
X410379Y303712D01*
X410441Y303790D01*
X410499Y303870D01*
X410555Y303953D01*
X410607Y304037D01*
X410657Y304124D01*
X410702Y304212D01*
X410745Y304302D01*
X410784Y304394D01*
X410819Y304487D01*
X410851Y304581D01*
X410879Y304676D01*
X410904Y304772D01*
X410925Y304870D01*
X410942Y304968D01*
X410955Y305066D01*
X410964Y305165D01*
X410970Y305265D01*
X410972Y305364D01*
X410972Y311856D01*
X410970Y311955D01*
X410964Y312055D01*
X410955Y312154D01*
X410942Y312252D01*
X410925Y312350D01*
X410904Y312448D01*
X410879Y312544D01*
X410851Y312639D01*
X410819Y312733D01*
X410784Y312826D01*
X410745Y312918D01*
X410702Y313008D01*
X410657Y313096D01*
X410607Y313183D01*
X410555Y313267D01*
X410499Y313350D01*
X410441Y313430D01*
X410379Y313508D01*
X410314Y313583D01*
X410246Y313656D01*
X410176Y313726D01*
X410103Y313794D01*
X410028Y313859D01*
X409950Y313921D01*
X409870Y313979D01*
X409787Y314035D01*
X409703Y314087D01*
X409616Y314137D01*
X409528Y314182D01*
X409438Y314225D01*
X409346Y314264D01*
X409253Y314299D01*
X409159Y314331D01*
X409064Y314359D01*
X408968Y314384D01*
X408870Y314405D01*
X408772Y314422D01*
X408674Y314435D01*
X408575Y314444D01*
X408475Y314450D01*
X408376Y314452D01*
X405779Y314452D01*
X401414Y311856D02*
X398168Y314452D01*
X398168Y302768D01*
X394923Y302768D02*
X401414Y302768D01*
X389984Y305364D02*
X387387Y314452D01*
X389984Y305364D02*
X383493Y305364D01*
X385440Y307961D02*
X385440Y302768D01*
X556194Y343408D02*
X558791Y343408D01*
X558890Y343410D01*
X558990Y343416D01*
X559089Y343425D01*
X559187Y343438D01*
X559285Y343455D01*
X559383Y343476D01*
X559479Y343501D01*
X559574Y343529D01*
X559668Y343561D01*
X559761Y343596D01*
X559853Y343635D01*
X559943Y343678D01*
X560031Y343723D01*
X560118Y343773D01*
X560202Y343825D01*
X560285Y343881D01*
X560365Y343939D01*
X560443Y344001D01*
X560518Y344066D01*
X560591Y344134D01*
X560661Y344204D01*
X560729Y344277D01*
X560794Y344352D01*
X560856Y344430D01*
X560914Y344510D01*
X560970Y344593D01*
X561022Y344677D01*
X561072Y344764D01*
X561117Y344852D01*
X561160Y344942D01*
X561199Y345034D01*
X561234Y345127D01*
X561266Y345221D01*
X561294Y345316D01*
X561319Y345412D01*
X561340Y345510D01*
X561357Y345608D01*
X561370Y345706D01*
X561379Y345805D01*
X561385Y345905D01*
X561387Y346004D01*
X561387Y352496D01*
X561385Y352595D01*
X561379Y352695D01*
X561370Y352794D01*
X561357Y352892D01*
X561340Y352990D01*
X561319Y353088D01*
X561294Y353184D01*
X561266Y353279D01*
X561234Y353373D01*
X561199Y353466D01*
X561160Y353558D01*
X561117Y353648D01*
X561072Y353736D01*
X561022Y353823D01*
X560970Y353907D01*
X560914Y353990D01*
X560856Y354070D01*
X560794Y354148D01*
X560729Y354223D01*
X560661Y354296D01*
X560591Y354366D01*
X560518Y354434D01*
X560443Y354499D01*
X560365Y354561D01*
X560285Y354619D01*
X560202Y354675D01*
X560118Y354727D01*
X560031Y354777D01*
X559943Y354822D01*
X559853Y354865D01*
X559761Y354904D01*
X559668Y354939D01*
X559574Y354971D01*
X559479Y354999D01*
X559383Y355024D01*
X559285Y355045D01*
X559187Y355062D01*
X559089Y355075D01*
X558990Y355084D01*
X558890Y355090D01*
X558791Y355092D01*
X556194Y355092D01*
X551829Y352496D02*
X548584Y355092D01*
X548584Y343408D01*
X551829Y343408D02*
X545338Y343408D01*
X540399Y343408D02*
X536504Y343408D01*
X536405Y343410D01*
X536305Y343416D01*
X536206Y343425D01*
X536108Y343438D01*
X536010Y343455D01*
X535912Y343476D01*
X535816Y343501D01*
X535721Y343529D01*
X535627Y343561D01*
X535534Y343596D01*
X535442Y343635D01*
X535352Y343678D01*
X535264Y343723D01*
X535177Y343773D01*
X535093Y343825D01*
X535010Y343881D01*
X534930Y343939D01*
X534852Y344001D01*
X534777Y344066D01*
X534704Y344134D01*
X534634Y344204D01*
X534566Y344277D01*
X534501Y344352D01*
X534439Y344430D01*
X534381Y344510D01*
X534325Y344593D01*
X534273Y344677D01*
X534223Y344764D01*
X534178Y344852D01*
X534135Y344942D01*
X534096Y345034D01*
X534061Y345127D01*
X534029Y345221D01*
X534001Y345316D01*
X533976Y345412D01*
X533955Y345510D01*
X533938Y345608D01*
X533925Y345706D01*
X533916Y345805D01*
X533910Y345905D01*
X533908Y346004D01*
X533908Y347303D01*
X533910Y347402D01*
X533916Y347502D01*
X533925Y347601D01*
X533938Y347699D01*
X533955Y347797D01*
X533976Y347895D01*
X534001Y347991D01*
X534029Y348086D01*
X534061Y348180D01*
X534096Y348273D01*
X534135Y348365D01*
X534178Y348455D01*
X534223Y348543D01*
X534273Y348630D01*
X534325Y348714D01*
X534381Y348797D01*
X534439Y348877D01*
X534501Y348955D01*
X534566Y349030D01*
X534634Y349103D01*
X534704Y349173D01*
X534777Y349241D01*
X534852Y349306D01*
X534930Y349368D01*
X535010Y349426D01*
X535093Y349482D01*
X535177Y349534D01*
X535264Y349584D01*
X535352Y349629D01*
X535442Y349672D01*
X535534Y349711D01*
X535627Y349746D01*
X535721Y349778D01*
X535816Y349806D01*
X535912Y349831D01*
X536010Y349852D01*
X536108Y349869D01*
X536206Y349882D01*
X536305Y349891D01*
X536405Y349897D01*
X536504Y349899D01*
X540399Y349899D01*
X540399Y355092D01*
X533908Y355092D01*
X238751Y183388D02*
X236154Y183388D01*
X238751Y183388D02*
X238850Y183390D01*
X238950Y183396D01*
X239049Y183405D01*
X239147Y183418D01*
X239245Y183435D01*
X239343Y183456D01*
X239439Y183481D01*
X239534Y183509D01*
X239628Y183541D01*
X239721Y183576D01*
X239813Y183615D01*
X239903Y183658D01*
X239991Y183703D01*
X240078Y183753D01*
X240162Y183805D01*
X240245Y183861D01*
X240325Y183919D01*
X240403Y183981D01*
X240478Y184046D01*
X240551Y184114D01*
X240621Y184184D01*
X240689Y184257D01*
X240754Y184332D01*
X240816Y184410D01*
X240874Y184490D01*
X240930Y184573D01*
X240982Y184657D01*
X241032Y184744D01*
X241077Y184832D01*
X241120Y184922D01*
X241159Y185014D01*
X241194Y185107D01*
X241226Y185201D01*
X241254Y185296D01*
X241279Y185392D01*
X241300Y185490D01*
X241317Y185588D01*
X241330Y185686D01*
X241339Y185785D01*
X241345Y185885D01*
X241347Y185984D01*
X241347Y192476D01*
X241345Y192575D01*
X241339Y192675D01*
X241330Y192774D01*
X241317Y192872D01*
X241300Y192970D01*
X241279Y193068D01*
X241254Y193164D01*
X241226Y193259D01*
X241194Y193353D01*
X241159Y193446D01*
X241120Y193538D01*
X241077Y193628D01*
X241032Y193716D01*
X240982Y193803D01*
X240930Y193887D01*
X240874Y193970D01*
X240816Y194050D01*
X240754Y194128D01*
X240689Y194203D01*
X240621Y194276D01*
X240551Y194346D01*
X240478Y194414D01*
X240403Y194479D01*
X240325Y194541D01*
X240245Y194599D01*
X240162Y194655D01*
X240078Y194707D01*
X239991Y194757D01*
X239903Y194802D01*
X239813Y194845D01*
X239721Y194884D01*
X239628Y194919D01*
X239534Y194951D01*
X239439Y194979D01*
X239343Y195004D01*
X239245Y195025D01*
X239147Y195042D01*
X239049Y195055D01*
X238950Y195064D01*
X238850Y195070D01*
X238751Y195072D01*
X236154Y195072D01*
X231789Y192476D02*
X228544Y195072D01*
X228544Y183388D01*
X231789Y183388D02*
X225298Y183388D01*
X220359Y189879D02*
X216464Y189879D01*
X216365Y189877D01*
X216265Y189871D01*
X216166Y189862D01*
X216068Y189849D01*
X215970Y189832D01*
X215872Y189811D01*
X215776Y189786D01*
X215681Y189758D01*
X215587Y189726D01*
X215494Y189691D01*
X215402Y189652D01*
X215312Y189609D01*
X215224Y189564D01*
X215137Y189514D01*
X215053Y189462D01*
X214970Y189406D01*
X214890Y189348D01*
X214812Y189286D01*
X214737Y189221D01*
X214664Y189153D01*
X214594Y189083D01*
X214526Y189010D01*
X214461Y188935D01*
X214399Y188857D01*
X214341Y188777D01*
X214285Y188694D01*
X214233Y188610D01*
X214183Y188523D01*
X214138Y188435D01*
X214095Y188345D01*
X214056Y188253D01*
X214021Y188160D01*
X213989Y188066D01*
X213961Y187971D01*
X213936Y187875D01*
X213915Y187777D01*
X213898Y187679D01*
X213885Y187581D01*
X213876Y187482D01*
X213870Y187382D01*
X213868Y187283D01*
X213868Y186634D01*
X213870Y186521D01*
X213876Y186408D01*
X213886Y186295D01*
X213900Y186182D01*
X213917Y186070D01*
X213939Y185959D01*
X213964Y185849D01*
X213994Y185739D01*
X214027Y185631D01*
X214064Y185524D01*
X214104Y185418D01*
X214149Y185314D01*
X214197Y185211D01*
X214248Y185110D01*
X214303Y185011D01*
X214361Y184914D01*
X214423Y184819D01*
X214488Y184726D01*
X214556Y184636D01*
X214627Y184548D01*
X214702Y184462D01*
X214779Y184379D01*
X214859Y184299D01*
X214942Y184222D01*
X215028Y184147D01*
X215116Y184076D01*
X215206Y184008D01*
X215299Y183943D01*
X215394Y183881D01*
X215491Y183823D01*
X215590Y183768D01*
X215691Y183717D01*
X215794Y183669D01*
X215898Y183624D01*
X216004Y183584D01*
X216111Y183547D01*
X216219Y183514D01*
X216329Y183484D01*
X216439Y183459D01*
X216550Y183437D01*
X216662Y183420D01*
X216775Y183406D01*
X216888Y183396D01*
X217001Y183390D01*
X217114Y183388D01*
X217227Y183390D01*
X217340Y183396D01*
X217453Y183406D01*
X217566Y183420D01*
X217678Y183437D01*
X217789Y183459D01*
X217899Y183484D01*
X218009Y183514D01*
X218117Y183547D01*
X218224Y183584D01*
X218330Y183624D01*
X218434Y183669D01*
X218537Y183717D01*
X218638Y183768D01*
X218737Y183823D01*
X218834Y183881D01*
X218929Y183943D01*
X219022Y184008D01*
X219112Y184076D01*
X219200Y184147D01*
X219286Y184222D01*
X219369Y184299D01*
X219449Y184379D01*
X219526Y184462D01*
X219601Y184548D01*
X219672Y184636D01*
X219740Y184726D01*
X219805Y184819D01*
X219867Y184914D01*
X219925Y185011D01*
X219980Y185110D01*
X220031Y185211D01*
X220079Y185314D01*
X220124Y185418D01*
X220164Y185524D01*
X220201Y185631D01*
X220234Y185739D01*
X220264Y185849D01*
X220289Y185959D01*
X220311Y186070D01*
X220328Y186182D01*
X220342Y186295D01*
X220352Y186408D01*
X220358Y186521D01*
X220360Y186634D01*
X220359Y186634D02*
X220359Y189879D01*
X220357Y190022D01*
X220351Y190165D01*
X220341Y190308D01*
X220327Y190450D01*
X220310Y190592D01*
X220288Y190734D01*
X220263Y190875D01*
X220233Y191015D01*
X220200Y191154D01*
X220163Y191292D01*
X220122Y191429D01*
X220078Y191565D01*
X220029Y191700D01*
X219977Y191833D01*
X219922Y191965D01*
X219862Y192095D01*
X219799Y192224D01*
X219733Y192351D01*
X219663Y192476D01*
X219590Y192598D01*
X219513Y192719D01*
X219433Y192838D01*
X219350Y192954D01*
X219264Y193069D01*
X219175Y193180D01*
X219082Y193290D01*
X218987Y193396D01*
X218888Y193500D01*
X218787Y193601D01*
X218683Y193700D01*
X218577Y193795D01*
X218467Y193888D01*
X218356Y193977D01*
X218241Y194063D01*
X218125Y194146D01*
X218006Y194226D01*
X217885Y194303D01*
X217763Y194376D01*
X217638Y194446D01*
X217511Y194512D01*
X217382Y194575D01*
X217252Y194635D01*
X217120Y194690D01*
X216987Y194742D01*
X216852Y194791D01*
X216716Y194835D01*
X216579Y194876D01*
X216441Y194913D01*
X216302Y194946D01*
X216162Y194976D01*
X216021Y195001D01*
X215879Y195023D01*
X215737Y195040D01*
X215595Y195054D01*
X215452Y195064D01*
X215309Y195070D01*
X215166Y195072D01*
X415939Y170688D02*
X418536Y170688D01*
X418635Y170690D01*
X418735Y170696D01*
X418834Y170705D01*
X418932Y170718D01*
X419030Y170735D01*
X419128Y170756D01*
X419224Y170781D01*
X419319Y170809D01*
X419413Y170841D01*
X419506Y170876D01*
X419598Y170915D01*
X419688Y170958D01*
X419776Y171003D01*
X419863Y171053D01*
X419947Y171105D01*
X420030Y171161D01*
X420110Y171219D01*
X420188Y171281D01*
X420263Y171346D01*
X420336Y171414D01*
X420406Y171484D01*
X420474Y171557D01*
X420539Y171632D01*
X420601Y171710D01*
X420659Y171790D01*
X420715Y171873D01*
X420767Y171957D01*
X420817Y172044D01*
X420862Y172132D01*
X420905Y172222D01*
X420944Y172314D01*
X420979Y172407D01*
X421011Y172501D01*
X421039Y172596D01*
X421064Y172692D01*
X421085Y172790D01*
X421102Y172888D01*
X421115Y172986D01*
X421124Y173085D01*
X421130Y173185D01*
X421132Y173284D01*
X421132Y179776D01*
X421130Y179875D01*
X421124Y179975D01*
X421115Y180074D01*
X421102Y180172D01*
X421085Y180270D01*
X421064Y180368D01*
X421039Y180464D01*
X421011Y180559D01*
X420979Y180653D01*
X420944Y180746D01*
X420905Y180838D01*
X420862Y180928D01*
X420817Y181016D01*
X420767Y181103D01*
X420715Y181187D01*
X420659Y181270D01*
X420601Y181350D01*
X420539Y181428D01*
X420474Y181503D01*
X420406Y181576D01*
X420336Y181646D01*
X420263Y181714D01*
X420188Y181779D01*
X420110Y181841D01*
X420030Y181899D01*
X419947Y181955D01*
X419863Y182007D01*
X419776Y182057D01*
X419688Y182102D01*
X419598Y182145D01*
X419506Y182184D01*
X419413Y182219D01*
X419319Y182251D01*
X419224Y182279D01*
X419128Y182304D01*
X419030Y182325D01*
X418932Y182342D01*
X418834Y182355D01*
X418735Y182364D01*
X418635Y182370D01*
X418536Y182372D01*
X415939Y182372D01*
X411574Y179776D02*
X408328Y182372D01*
X408328Y170688D01*
X405083Y170688D02*
X411574Y170688D01*
X400144Y181074D02*
X400144Y182372D01*
X393653Y182372D01*
X396898Y170688D01*
X432308Y173284D02*
X432308Y175881D01*
X432308Y173284D02*
X432310Y173185D01*
X432316Y173085D01*
X432325Y172986D01*
X432338Y172888D01*
X432355Y172790D01*
X432376Y172692D01*
X432401Y172596D01*
X432429Y172501D01*
X432461Y172407D01*
X432496Y172314D01*
X432535Y172222D01*
X432578Y172132D01*
X432623Y172044D01*
X432673Y171957D01*
X432725Y171873D01*
X432781Y171790D01*
X432839Y171710D01*
X432901Y171632D01*
X432966Y171557D01*
X433034Y171484D01*
X433104Y171414D01*
X433177Y171346D01*
X433252Y171281D01*
X433330Y171219D01*
X433410Y171161D01*
X433493Y171105D01*
X433577Y171053D01*
X433664Y171003D01*
X433752Y170958D01*
X433842Y170915D01*
X433934Y170876D01*
X434027Y170841D01*
X434121Y170809D01*
X434216Y170781D01*
X434312Y170756D01*
X434410Y170735D01*
X434508Y170718D01*
X434606Y170705D01*
X434705Y170696D01*
X434805Y170690D01*
X434904Y170688D01*
X441396Y170688D01*
X441495Y170690D01*
X441595Y170696D01*
X441694Y170705D01*
X441792Y170718D01*
X441890Y170735D01*
X441988Y170756D01*
X442084Y170781D01*
X442179Y170809D01*
X442273Y170841D01*
X442366Y170876D01*
X442458Y170915D01*
X442548Y170958D01*
X442636Y171003D01*
X442723Y171053D01*
X442807Y171105D01*
X442890Y171161D01*
X442970Y171219D01*
X443048Y171281D01*
X443123Y171346D01*
X443196Y171414D01*
X443266Y171484D01*
X443334Y171557D01*
X443399Y171632D01*
X443461Y171710D01*
X443519Y171790D01*
X443575Y171873D01*
X443627Y171957D01*
X443677Y172044D01*
X443722Y172132D01*
X443765Y172222D01*
X443804Y172314D01*
X443839Y172406D01*
X443871Y172501D01*
X443899Y172596D01*
X443924Y172692D01*
X443945Y172790D01*
X443962Y172888D01*
X443975Y172986D01*
X443984Y173085D01*
X443990Y173185D01*
X443992Y173284D01*
X443992Y175881D01*
X441396Y180246D02*
X443992Y183492D01*
X432308Y183492D01*
X432308Y186737D02*
X432308Y180246D01*
X435554Y191676D02*
X435667Y191678D01*
X435780Y191684D01*
X435893Y191694D01*
X436006Y191708D01*
X436118Y191725D01*
X436229Y191747D01*
X436339Y191772D01*
X436449Y191802D01*
X436557Y191835D01*
X436664Y191872D01*
X436770Y191912D01*
X436874Y191957D01*
X436977Y192005D01*
X437078Y192056D01*
X437177Y192111D01*
X437274Y192169D01*
X437369Y192231D01*
X437462Y192296D01*
X437552Y192364D01*
X437640Y192435D01*
X437726Y192510D01*
X437809Y192587D01*
X437889Y192667D01*
X437966Y192750D01*
X438041Y192836D01*
X438112Y192924D01*
X438180Y193014D01*
X438245Y193107D01*
X438307Y193202D01*
X438365Y193299D01*
X438420Y193398D01*
X438471Y193499D01*
X438519Y193602D01*
X438564Y193706D01*
X438604Y193812D01*
X438641Y193919D01*
X438674Y194027D01*
X438704Y194137D01*
X438729Y194247D01*
X438751Y194358D01*
X438768Y194470D01*
X438782Y194583D01*
X438792Y194696D01*
X438798Y194809D01*
X438800Y194922D01*
X438798Y195035D01*
X438792Y195148D01*
X438782Y195261D01*
X438768Y195374D01*
X438751Y195486D01*
X438729Y195597D01*
X438704Y195707D01*
X438674Y195817D01*
X438641Y195925D01*
X438604Y196032D01*
X438564Y196138D01*
X438519Y196242D01*
X438471Y196345D01*
X438420Y196446D01*
X438365Y196545D01*
X438307Y196642D01*
X438245Y196737D01*
X438180Y196830D01*
X438112Y196920D01*
X438041Y197008D01*
X437966Y197094D01*
X437889Y197177D01*
X437809Y197257D01*
X437726Y197334D01*
X437640Y197409D01*
X437552Y197480D01*
X437462Y197548D01*
X437369Y197613D01*
X437274Y197675D01*
X437177Y197733D01*
X437078Y197788D01*
X436977Y197839D01*
X436874Y197887D01*
X436770Y197932D01*
X436664Y197972D01*
X436557Y198009D01*
X436449Y198042D01*
X436339Y198072D01*
X436229Y198097D01*
X436118Y198119D01*
X436006Y198136D01*
X435893Y198150D01*
X435780Y198160D01*
X435667Y198166D01*
X435554Y198168D01*
X435441Y198166D01*
X435328Y198160D01*
X435215Y198150D01*
X435102Y198136D01*
X434990Y198119D01*
X434879Y198097D01*
X434769Y198072D01*
X434659Y198042D01*
X434551Y198009D01*
X434444Y197972D01*
X434338Y197932D01*
X434234Y197887D01*
X434131Y197839D01*
X434030Y197788D01*
X433931Y197733D01*
X433834Y197675D01*
X433739Y197613D01*
X433646Y197548D01*
X433556Y197480D01*
X433468Y197409D01*
X433382Y197334D01*
X433299Y197257D01*
X433219Y197177D01*
X433142Y197094D01*
X433067Y197008D01*
X432996Y196920D01*
X432928Y196830D01*
X432863Y196737D01*
X432801Y196642D01*
X432743Y196545D01*
X432688Y196446D01*
X432637Y196345D01*
X432589Y196242D01*
X432544Y196138D01*
X432504Y196032D01*
X432467Y195925D01*
X432434Y195817D01*
X432404Y195707D01*
X432379Y195597D01*
X432357Y195486D01*
X432340Y195374D01*
X432326Y195261D01*
X432316Y195148D01*
X432310Y195035D01*
X432308Y194922D01*
X432310Y194809D01*
X432316Y194696D01*
X432326Y194583D01*
X432340Y194470D01*
X432357Y194358D01*
X432379Y194247D01*
X432404Y194137D01*
X432434Y194027D01*
X432467Y193919D01*
X432504Y193812D01*
X432544Y193706D01*
X432589Y193602D01*
X432637Y193499D01*
X432688Y193398D01*
X432743Y193299D01*
X432801Y193202D01*
X432863Y193107D01*
X432928Y193014D01*
X432996Y192924D01*
X433067Y192836D01*
X433142Y192750D01*
X433219Y192667D01*
X433299Y192587D01*
X433382Y192510D01*
X433468Y192435D01*
X433556Y192364D01*
X433646Y192296D01*
X433739Y192231D01*
X433834Y192169D01*
X433931Y192111D01*
X434030Y192056D01*
X434131Y192005D01*
X434234Y191957D01*
X434338Y191912D01*
X434444Y191872D01*
X434551Y191835D01*
X434659Y191802D01*
X434769Y191772D01*
X434879Y191747D01*
X434990Y191725D01*
X435102Y191708D01*
X435215Y191694D01*
X435328Y191684D01*
X435441Y191678D01*
X435554Y191676D01*
X441396Y192326D02*
X441497Y192328D01*
X441597Y192334D01*
X441697Y192344D01*
X441797Y192357D01*
X441896Y192375D01*
X441995Y192396D01*
X442092Y192421D01*
X442189Y192450D01*
X442284Y192483D01*
X442378Y192519D01*
X442470Y192559D01*
X442561Y192602D01*
X442650Y192649D01*
X442737Y192699D01*
X442823Y192753D01*
X442906Y192810D01*
X442986Y192870D01*
X443065Y192933D01*
X443141Y193000D01*
X443214Y193069D01*
X443284Y193141D01*
X443352Y193215D01*
X443417Y193292D01*
X443478Y193372D01*
X443537Y193454D01*
X443592Y193538D01*
X443644Y193624D01*
X443693Y193712D01*
X443738Y193802D01*
X443780Y193894D01*
X443818Y193987D01*
X443852Y194082D01*
X443883Y194177D01*
X443910Y194274D01*
X443933Y194372D01*
X443953Y194471D01*
X443968Y194571D01*
X443980Y194671D01*
X443988Y194771D01*
X443992Y194872D01*
X443992Y194972D01*
X443988Y195073D01*
X443980Y195173D01*
X443968Y195273D01*
X443953Y195373D01*
X443933Y195472D01*
X443910Y195570D01*
X443883Y195667D01*
X443852Y195762D01*
X443818Y195857D01*
X443780Y195950D01*
X443738Y196042D01*
X443693Y196132D01*
X443644Y196220D01*
X443592Y196306D01*
X443537Y196390D01*
X443478Y196472D01*
X443417Y196552D01*
X443352Y196629D01*
X443284Y196703D01*
X443214Y196775D01*
X443141Y196844D01*
X443065Y196911D01*
X442986Y196974D01*
X442906Y197034D01*
X442823Y197091D01*
X442737Y197145D01*
X442650Y197195D01*
X442561Y197242D01*
X442470Y197285D01*
X442378Y197325D01*
X442284Y197361D01*
X442189Y197394D01*
X442092Y197423D01*
X441995Y197448D01*
X441896Y197469D01*
X441797Y197487D01*
X441697Y197500D01*
X441597Y197510D01*
X441497Y197516D01*
X441396Y197518D01*
X441295Y197516D01*
X441195Y197510D01*
X441095Y197500D01*
X440995Y197487D01*
X440896Y197469D01*
X440797Y197448D01*
X440700Y197423D01*
X440603Y197394D01*
X440508Y197361D01*
X440414Y197325D01*
X440322Y197285D01*
X440231Y197242D01*
X440142Y197195D01*
X440055Y197145D01*
X439969Y197091D01*
X439886Y197034D01*
X439806Y196974D01*
X439727Y196911D01*
X439651Y196844D01*
X439578Y196775D01*
X439508Y196703D01*
X439440Y196629D01*
X439375Y196552D01*
X439314Y196472D01*
X439255Y196390D01*
X439200Y196306D01*
X439148Y196220D01*
X439099Y196132D01*
X439054Y196042D01*
X439012Y195950D01*
X438974Y195857D01*
X438940Y195762D01*
X438909Y195667D01*
X438882Y195570D01*
X438859Y195472D01*
X438839Y195373D01*
X438824Y195273D01*
X438812Y195173D01*
X438804Y195073D01*
X438800Y194972D01*
X438800Y194872D01*
X438804Y194771D01*
X438812Y194671D01*
X438824Y194571D01*
X438839Y194471D01*
X438859Y194372D01*
X438882Y194274D01*
X438909Y194177D01*
X438940Y194082D01*
X438974Y193987D01*
X439012Y193894D01*
X439054Y193802D01*
X439099Y193712D01*
X439148Y193624D01*
X439200Y193538D01*
X439255Y193454D01*
X439314Y193372D01*
X439375Y193292D01*
X439440Y193215D01*
X439508Y193141D01*
X439578Y193069D01*
X439651Y193000D01*
X439727Y192933D01*
X439806Y192870D01*
X439886Y192810D01*
X439969Y192753D01*
X440055Y192699D01*
X440142Y192649D01*
X440231Y192602D01*
X440322Y192559D01*
X440414Y192519D01*
X440508Y192483D01*
X440603Y192450D01*
X440700Y192421D01*
X440797Y192396D01*
X440896Y192375D01*
X440995Y192357D01*
X441095Y192344D01*
X441195Y192334D01*
X441295Y192328D01*
X441396Y192326D01*
X459119Y307848D02*
X461716Y307848D01*
X461815Y307850D01*
X461915Y307856D01*
X462014Y307865D01*
X462112Y307878D01*
X462210Y307895D01*
X462308Y307916D01*
X462404Y307941D01*
X462499Y307969D01*
X462593Y308001D01*
X462686Y308036D01*
X462778Y308075D01*
X462868Y308118D01*
X462956Y308163D01*
X463043Y308213D01*
X463127Y308265D01*
X463210Y308321D01*
X463290Y308379D01*
X463368Y308441D01*
X463443Y308506D01*
X463516Y308574D01*
X463586Y308644D01*
X463654Y308717D01*
X463719Y308792D01*
X463781Y308870D01*
X463839Y308950D01*
X463895Y309033D01*
X463947Y309117D01*
X463997Y309204D01*
X464042Y309292D01*
X464085Y309382D01*
X464124Y309474D01*
X464159Y309567D01*
X464191Y309661D01*
X464219Y309756D01*
X464244Y309852D01*
X464265Y309950D01*
X464282Y310048D01*
X464295Y310146D01*
X464304Y310245D01*
X464310Y310345D01*
X464312Y310444D01*
X464312Y316936D01*
X464310Y317035D01*
X464304Y317135D01*
X464295Y317234D01*
X464282Y317332D01*
X464265Y317430D01*
X464244Y317528D01*
X464219Y317624D01*
X464191Y317719D01*
X464159Y317813D01*
X464124Y317906D01*
X464085Y317998D01*
X464042Y318088D01*
X463997Y318176D01*
X463947Y318263D01*
X463895Y318347D01*
X463839Y318430D01*
X463781Y318510D01*
X463719Y318588D01*
X463654Y318663D01*
X463586Y318736D01*
X463516Y318806D01*
X463443Y318874D01*
X463368Y318939D01*
X463290Y319001D01*
X463210Y319059D01*
X463127Y319115D01*
X463043Y319167D01*
X462956Y319217D01*
X462868Y319262D01*
X462778Y319305D01*
X462686Y319344D01*
X462593Y319379D01*
X462499Y319411D01*
X462404Y319439D01*
X462308Y319464D01*
X462210Y319485D01*
X462112Y319502D01*
X462014Y319515D01*
X461915Y319524D01*
X461815Y319530D01*
X461716Y319532D01*
X459119Y319532D01*
X454754Y316936D02*
X451508Y319532D01*
X451508Y307848D01*
X448263Y307848D02*
X454754Y307848D01*
X440727Y313041D02*
X436833Y313041D01*
X440727Y313041D02*
X440826Y313043D01*
X440926Y313049D01*
X441025Y313058D01*
X441123Y313071D01*
X441221Y313088D01*
X441319Y313109D01*
X441415Y313134D01*
X441510Y313162D01*
X441604Y313194D01*
X441697Y313229D01*
X441789Y313268D01*
X441879Y313311D01*
X441967Y313356D01*
X442054Y313406D01*
X442138Y313458D01*
X442221Y313514D01*
X442301Y313572D01*
X442379Y313634D01*
X442454Y313699D01*
X442527Y313767D01*
X442597Y313837D01*
X442665Y313910D01*
X442730Y313985D01*
X442792Y314063D01*
X442850Y314143D01*
X442906Y314226D01*
X442958Y314310D01*
X443008Y314397D01*
X443053Y314485D01*
X443096Y314575D01*
X443135Y314667D01*
X443170Y314760D01*
X443202Y314854D01*
X443230Y314949D01*
X443255Y315045D01*
X443276Y315143D01*
X443293Y315241D01*
X443306Y315339D01*
X443315Y315438D01*
X443321Y315538D01*
X443323Y315637D01*
X443324Y315637D02*
X443324Y316286D01*
X443322Y316399D01*
X443316Y316512D01*
X443306Y316625D01*
X443292Y316738D01*
X443275Y316850D01*
X443253Y316961D01*
X443228Y317071D01*
X443198Y317181D01*
X443165Y317289D01*
X443128Y317396D01*
X443088Y317502D01*
X443043Y317606D01*
X442995Y317709D01*
X442944Y317810D01*
X442889Y317909D01*
X442831Y318006D01*
X442769Y318101D01*
X442704Y318194D01*
X442636Y318284D01*
X442565Y318372D01*
X442490Y318458D01*
X442413Y318541D01*
X442333Y318621D01*
X442250Y318698D01*
X442164Y318773D01*
X442076Y318844D01*
X441986Y318912D01*
X441893Y318977D01*
X441798Y319039D01*
X441701Y319097D01*
X441602Y319152D01*
X441501Y319203D01*
X441398Y319251D01*
X441294Y319296D01*
X441188Y319336D01*
X441081Y319373D01*
X440973Y319406D01*
X440863Y319436D01*
X440753Y319461D01*
X440642Y319483D01*
X440530Y319500D01*
X440417Y319514D01*
X440304Y319524D01*
X440191Y319530D01*
X440078Y319532D01*
X439965Y319530D01*
X439852Y319524D01*
X439739Y319514D01*
X439626Y319500D01*
X439514Y319483D01*
X439403Y319461D01*
X439293Y319436D01*
X439183Y319406D01*
X439075Y319373D01*
X438968Y319336D01*
X438862Y319296D01*
X438758Y319251D01*
X438655Y319203D01*
X438554Y319152D01*
X438455Y319097D01*
X438358Y319039D01*
X438263Y318977D01*
X438170Y318912D01*
X438080Y318844D01*
X437992Y318773D01*
X437906Y318698D01*
X437823Y318621D01*
X437743Y318541D01*
X437666Y318458D01*
X437591Y318372D01*
X437520Y318284D01*
X437452Y318194D01*
X437387Y318101D01*
X437325Y318006D01*
X437267Y317909D01*
X437212Y317810D01*
X437161Y317709D01*
X437113Y317606D01*
X437068Y317502D01*
X437028Y317396D01*
X436991Y317289D01*
X436958Y317181D01*
X436928Y317071D01*
X436903Y316961D01*
X436881Y316850D01*
X436864Y316738D01*
X436850Y316625D01*
X436840Y316512D01*
X436834Y316399D01*
X436832Y316286D01*
X436833Y316286D02*
X436833Y313041D01*
X436835Y312898D01*
X436841Y312755D01*
X436851Y312612D01*
X436865Y312470D01*
X436882Y312328D01*
X436904Y312186D01*
X436929Y312045D01*
X436959Y311905D01*
X436992Y311766D01*
X437029Y311628D01*
X437070Y311491D01*
X437114Y311355D01*
X437163Y311220D01*
X437215Y311087D01*
X437270Y310955D01*
X437330Y310825D01*
X437393Y310696D01*
X437459Y310569D01*
X437529Y310445D01*
X437602Y310322D01*
X437679Y310201D01*
X437759Y310082D01*
X437842Y309966D01*
X437928Y309851D01*
X438017Y309740D01*
X438110Y309630D01*
X438205Y309524D01*
X438304Y309420D01*
X438405Y309319D01*
X438509Y309220D01*
X438615Y309125D01*
X438725Y309032D01*
X438836Y308943D01*
X438951Y308857D01*
X439067Y308774D01*
X439186Y308694D01*
X439307Y308617D01*
X439429Y308544D01*
X439554Y308474D01*
X439681Y308408D01*
X439810Y308345D01*
X439940Y308285D01*
X440072Y308230D01*
X440205Y308178D01*
X440340Y308129D01*
X440476Y308085D01*
X440613Y308044D01*
X440751Y308007D01*
X440890Y307974D01*
X441030Y307944D01*
X441171Y307919D01*
X441313Y307897D01*
X441455Y307880D01*
X441597Y307866D01*
X441740Y307856D01*
X441883Y307850D01*
X442026Y307848D01*
X513014Y338328D02*
X515611Y338328D01*
X515710Y338330D01*
X515810Y338336D01*
X515909Y338345D01*
X516007Y338358D01*
X516105Y338375D01*
X516203Y338396D01*
X516299Y338421D01*
X516394Y338449D01*
X516488Y338481D01*
X516581Y338516D01*
X516673Y338555D01*
X516763Y338598D01*
X516851Y338643D01*
X516938Y338693D01*
X517022Y338745D01*
X517105Y338801D01*
X517185Y338859D01*
X517263Y338921D01*
X517338Y338986D01*
X517411Y339054D01*
X517481Y339124D01*
X517549Y339197D01*
X517614Y339272D01*
X517676Y339350D01*
X517734Y339430D01*
X517790Y339513D01*
X517842Y339597D01*
X517892Y339684D01*
X517937Y339772D01*
X517980Y339862D01*
X518019Y339954D01*
X518054Y340047D01*
X518086Y340141D01*
X518114Y340236D01*
X518139Y340332D01*
X518160Y340430D01*
X518177Y340528D01*
X518190Y340626D01*
X518199Y340725D01*
X518205Y340825D01*
X518207Y340924D01*
X518207Y347416D01*
X518205Y347515D01*
X518199Y347615D01*
X518190Y347714D01*
X518177Y347812D01*
X518160Y347910D01*
X518139Y348008D01*
X518114Y348104D01*
X518086Y348199D01*
X518054Y348293D01*
X518019Y348386D01*
X517980Y348478D01*
X517937Y348568D01*
X517892Y348656D01*
X517842Y348743D01*
X517790Y348827D01*
X517734Y348910D01*
X517676Y348990D01*
X517614Y349068D01*
X517549Y349143D01*
X517481Y349216D01*
X517411Y349286D01*
X517338Y349354D01*
X517263Y349419D01*
X517185Y349481D01*
X517105Y349539D01*
X517022Y349595D01*
X516938Y349647D01*
X516851Y349697D01*
X516763Y349742D01*
X516673Y349785D01*
X516581Y349824D01*
X516488Y349859D01*
X516394Y349891D01*
X516299Y349919D01*
X516203Y349944D01*
X516105Y349965D01*
X516007Y349982D01*
X515909Y349995D01*
X515810Y350004D01*
X515710Y350010D01*
X515611Y350012D01*
X513014Y350012D01*
X505079Y350012D02*
X504972Y350010D01*
X504866Y350004D01*
X504760Y349994D01*
X504654Y349981D01*
X504548Y349963D01*
X504444Y349942D01*
X504340Y349917D01*
X504237Y349888D01*
X504136Y349856D01*
X504036Y349819D01*
X503937Y349779D01*
X503839Y349736D01*
X503743Y349689D01*
X503649Y349638D01*
X503557Y349584D01*
X503467Y349527D01*
X503379Y349467D01*
X503294Y349403D01*
X503211Y349336D01*
X503130Y349266D01*
X503052Y349194D01*
X502976Y349118D01*
X502904Y349040D01*
X502834Y348959D01*
X502767Y348876D01*
X502703Y348791D01*
X502643Y348703D01*
X502586Y348613D01*
X502532Y348521D01*
X502481Y348427D01*
X502434Y348331D01*
X502391Y348233D01*
X502351Y348134D01*
X502314Y348034D01*
X502282Y347933D01*
X502253Y347830D01*
X502228Y347726D01*
X502207Y347622D01*
X502189Y347516D01*
X502176Y347410D01*
X502166Y347304D01*
X502160Y347198D01*
X502158Y347091D01*
X505079Y350012D02*
X505200Y350010D01*
X505321Y350004D01*
X505441Y349994D01*
X505562Y349981D01*
X505681Y349963D01*
X505801Y349942D01*
X505919Y349917D01*
X506036Y349888D01*
X506153Y349855D01*
X506268Y349819D01*
X506382Y349778D01*
X506495Y349735D01*
X506607Y349687D01*
X506716Y349636D01*
X506824Y349581D01*
X506931Y349523D01*
X507035Y349462D01*
X507137Y349397D01*
X507237Y349329D01*
X507335Y349258D01*
X507431Y349184D01*
X507524Y349107D01*
X507614Y349026D01*
X507702Y348943D01*
X507787Y348857D01*
X507870Y348768D01*
X507949Y348677D01*
X508026Y348583D01*
X508099Y348487D01*
X508169Y348389D01*
X508236Y348288D01*
X508300Y348185D01*
X508361Y348080D01*
X508418Y347973D01*
X508471Y347865D01*
X508521Y347755D01*
X508567Y347643D01*
X508610Y347530D01*
X508649Y347415D01*
X503132Y344819D02*
X503053Y344897D01*
X502977Y344977D01*
X502904Y345060D01*
X502834Y345146D01*
X502767Y345233D01*
X502703Y345324D01*
X502643Y345416D01*
X502585Y345510D01*
X502531Y345607D01*
X502481Y345705D01*
X502434Y345805D01*
X502390Y345906D01*
X502350Y346009D01*
X502314Y346114D01*
X502282Y346219D01*
X502253Y346326D01*
X502228Y346433D01*
X502206Y346542D01*
X502189Y346651D01*
X502175Y346760D01*
X502166Y346870D01*
X502160Y346981D01*
X502158Y347091D01*
X503132Y344819D02*
X508649Y338328D01*
X502158Y338328D01*
X497220Y344170D02*
X497217Y344400D01*
X497209Y344630D01*
X497195Y344859D01*
X497176Y345088D01*
X497151Y345317D01*
X497121Y345545D01*
X497086Y345772D01*
X497045Y345998D01*
X496999Y346223D01*
X496947Y346447D01*
X496890Y346670D01*
X496828Y346891D01*
X496760Y347111D01*
X496687Y347329D01*
X496609Y347545D01*
X496526Y347759D01*
X496438Y347972D01*
X496345Y348182D01*
X496246Y348389D01*
X496213Y348479D01*
X496177Y348568D01*
X496137Y348656D01*
X496093Y348741D01*
X496046Y348825D01*
X495996Y348907D01*
X495942Y348987D01*
X495886Y349064D01*
X495826Y349140D01*
X495763Y349213D01*
X495698Y349283D01*
X495629Y349351D01*
X495558Y349415D01*
X495485Y349477D01*
X495409Y349536D01*
X495331Y349592D01*
X495250Y349645D01*
X495168Y349694D01*
X495084Y349740D01*
X494997Y349783D01*
X494910Y349822D01*
X494820Y349858D01*
X494730Y349890D01*
X494638Y349918D01*
X494545Y349943D01*
X494451Y349964D01*
X494357Y349981D01*
X494262Y349995D01*
X494166Y350004D01*
X494070Y350010D01*
X493974Y350012D01*
X493878Y350010D01*
X493782Y350004D01*
X493686Y349995D01*
X493591Y349981D01*
X493497Y349964D01*
X493403Y349943D01*
X493310Y349918D01*
X493218Y349890D01*
X493128Y349858D01*
X493038Y349822D01*
X492951Y349783D01*
X492864Y349740D01*
X492780Y349694D01*
X492698Y349645D01*
X492617Y349592D01*
X492539Y349536D01*
X492463Y349477D01*
X492390Y349415D01*
X492319Y349351D01*
X492250Y349283D01*
X492185Y349213D01*
X492122Y349140D01*
X492062Y349065D01*
X492006Y348987D01*
X491952Y348907D01*
X491902Y348825D01*
X491855Y348741D01*
X491812Y348656D01*
X491771Y348568D01*
X491735Y348479D01*
X491702Y348389D01*
X491603Y348181D01*
X491510Y347971D01*
X491422Y347759D01*
X491339Y347545D01*
X491261Y347328D01*
X491188Y347110D01*
X491120Y346891D01*
X491058Y346669D01*
X491001Y346447D01*
X490949Y346223D01*
X490903Y345998D01*
X490862Y345772D01*
X490827Y345544D01*
X490797Y345317D01*
X490772Y345088D01*
X490753Y344859D01*
X490739Y344630D01*
X490731Y344400D01*
X490728Y344170D01*
X497219Y344170D02*
X497216Y343940D01*
X497208Y343710D01*
X497194Y343481D01*
X497175Y343252D01*
X497150Y343023D01*
X497120Y342795D01*
X497085Y342568D01*
X497044Y342342D01*
X496998Y342117D01*
X496946Y341893D01*
X496889Y341670D01*
X496827Y341449D01*
X496759Y341229D01*
X496686Y341011D01*
X496608Y340795D01*
X496525Y340581D01*
X496437Y340369D01*
X496344Y340158D01*
X496245Y339951D01*
X496246Y339951D02*
X496213Y339861D01*
X496177Y339772D01*
X496136Y339684D01*
X496093Y339599D01*
X496046Y339515D01*
X495996Y339433D01*
X495942Y339353D01*
X495886Y339276D01*
X495826Y339200D01*
X495763Y339127D01*
X495698Y339057D01*
X495629Y338989D01*
X495558Y338925D01*
X495485Y338863D01*
X495409Y338804D01*
X495331Y338748D01*
X495250Y338695D01*
X495168Y338646D01*
X495084Y338600D01*
X494997Y338557D01*
X494910Y338518D01*
X494820Y338482D01*
X494730Y338450D01*
X494638Y338422D01*
X494545Y338397D01*
X494451Y338376D01*
X494357Y338359D01*
X494262Y338345D01*
X494166Y338336D01*
X494070Y338330D01*
X493974Y338328D01*
X491702Y339951D02*
X491603Y340158D01*
X491510Y340369D01*
X491422Y340581D01*
X491339Y340795D01*
X491261Y341011D01*
X491188Y341229D01*
X491120Y341449D01*
X491058Y341670D01*
X491001Y341893D01*
X490949Y342117D01*
X490903Y342342D01*
X490862Y342568D01*
X490827Y342795D01*
X490797Y343023D01*
X490772Y343252D01*
X490753Y343481D01*
X490739Y343710D01*
X490731Y343940D01*
X490728Y344170D01*
X491702Y339951D02*
X491735Y339861D01*
X491771Y339772D01*
X491812Y339684D01*
X491855Y339599D01*
X491902Y339515D01*
X491952Y339433D01*
X492006Y339353D01*
X492062Y339275D01*
X492122Y339200D01*
X492185Y339127D01*
X492250Y339057D01*
X492319Y338989D01*
X492390Y338925D01*
X492463Y338863D01*
X492539Y338804D01*
X492617Y338748D01*
X492698Y338695D01*
X492780Y338646D01*
X492864Y338600D01*
X492951Y338557D01*
X493038Y338518D01*
X493128Y338482D01*
X493218Y338450D01*
X493310Y338422D01*
X493403Y338397D01*
X493497Y338376D01*
X493591Y338359D01*
X493686Y338345D01*
X493782Y338336D01*
X493878Y338330D01*
X493974Y338328D01*
X496570Y340924D02*
X491377Y347416D01*
X570879Y218948D02*
X573476Y218948D01*
X573575Y218950D01*
X573675Y218956D01*
X573774Y218965D01*
X573872Y218978D01*
X573970Y218995D01*
X574068Y219016D01*
X574164Y219041D01*
X574259Y219069D01*
X574353Y219101D01*
X574446Y219136D01*
X574538Y219175D01*
X574628Y219218D01*
X574716Y219263D01*
X574803Y219313D01*
X574887Y219365D01*
X574970Y219421D01*
X575050Y219479D01*
X575128Y219541D01*
X575203Y219606D01*
X575276Y219674D01*
X575346Y219744D01*
X575414Y219817D01*
X575479Y219892D01*
X575541Y219970D01*
X575599Y220050D01*
X575655Y220133D01*
X575707Y220217D01*
X575757Y220304D01*
X575802Y220392D01*
X575845Y220482D01*
X575884Y220574D01*
X575919Y220667D01*
X575951Y220761D01*
X575979Y220856D01*
X576004Y220952D01*
X576025Y221050D01*
X576042Y221148D01*
X576055Y221246D01*
X576064Y221345D01*
X576070Y221445D01*
X576072Y221544D01*
X576072Y228036D01*
X576070Y228135D01*
X576064Y228235D01*
X576055Y228334D01*
X576042Y228432D01*
X576025Y228530D01*
X576004Y228628D01*
X575979Y228724D01*
X575951Y228819D01*
X575919Y228913D01*
X575884Y229006D01*
X575845Y229098D01*
X575802Y229188D01*
X575757Y229276D01*
X575707Y229363D01*
X575655Y229447D01*
X575599Y229530D01*
X575541Y229610D01*
X575479Y229688D01*
X575414Y229763D01*
X575346Y229836D01*
X575276Y229906D01*
X575203Y229974D01*
X575128Y230039D01*
X575050Y230101D01*
X574970Y230159D01*
X574887Y230215D01*
X574803Y230267D01*
X574716Y230317D01*
X574628Y230362D01*
X574538Y230405D01*
X574446Y230444D01*
X574353Y230479D01*
X574259Y230511D01*
X574164Y230539D01*
X574068Y230564D01*
X573970Y230585D01*
X573872Y230602D01*
X573774Y230615D01*
X573675Y230624D01*
X573575Y230630D01*
X573476Y230632D01*
X570879Y230632D01*
X562944Y230632D02*
X562837Y230630D01*
X562731Y230624D01*
X562625Y230614D01*
X562519Y230601D01*
X562413Y230583D01*
X562309Y230562D01*
X562205Y230537D01*
X562102Y230508D01*
X562001Y230476D01*
X561901Y230439D01*
X561802Y230399D01*
X561704Y230356D01*
X561608Y230309D01*
X561514Y230258D01*
X561422Y230204D01*
X561332Y230147D01*
X561244Y230087D01*
X561159Y230023D01*
X561076Y229956D01*
X560995Y229886D01*
X560917Y229814D01*
X560841Y229738D01*
X560769Y229660D01*
X560699Y229579D01*
X560632Y229496D01*
X560568Y229411D01*
X560508Y229323D01*
X560451Y229233D01*
X560397Y229141D01*
X560346Y229047D01*
X560299Y228951D01*
X560256Y228853D01*
X560216Y228754D01*
X560179Y228654D01*
X560147Y228553D01*
X560118Y228450D01*
X560093Y228346D01*
X560072Y228242D01*
X560054Y228136D01*
X560041Y228030D01*
X560031Y227924D01*
X560025Y227818D01*
X560023Y227711D01*
X562944Y230632D02*
X563065Y230630D01*
X563186Y230624D01*
X563306Y230614D01*
X563427Y230601D01*
X563546Y230583D01*
X563666Y230562D01*
X563784Y230537D01*
X563901Y230508D01*
X564018Y230475D01*
X564133Y230439D01*
X564247Y230398D01*
X564360Y230355D01*
X564472Y230307D01*
X564581Y230256D01*
X564689Y230201D01*
X564796Y230143D01*
X564900Y230082D01*
X565002Y230017D01*
X565102Y229949D01*
X565200Y229878D01*
X565296Y229804D01*
X565389Y229727D01*
X565479Y229646D01*
X565567Y229563D01*
X565652Y229477D01*
X565735Y229388D01*
X565814Y229297D01*
X565891Y229203D01*
X565964Y229107D01*
X566034Y229009D01*
X566101Y228908D01*
X566165Y228805D01*
X566226Y228700D01*
X566283Y228593D01*
X566336Y228485D01*
X566386Y228375D01*
X566432Y228263D01*
X566475Y228150D01*
X566514Y228035D01*
X560997Y225439D02*
X560918Y225517D01*
X560842Y225597D01*
X560769Y225680D01*
X560699Y225766D01*
X560632Y225853D01*
X560568Y225944D01*
X560508Y226036D01*
X560450Y226130D01*
X560396Y226227D01*
X560346Y226325D01*
X560299Y226425D01*
X560255Y226526D01*
X560215Y226629D01*
X560179Y226734D01*
X560147Y226839D01*
X560118Y226946D01*
X560093Y227053D01*
X560071Y227162D01*
X560054Y227271D01*
X560040Y227380D01*
X560031Y227490D01*
X560025Y227601D01*
X560023Y227711D01*
X560996Y225439D02*
X566514Y218948D01*
X560023Y218948D01*
X555084Y228036D02*
X551838Y230632D01*
X551838Y218948D01*
X548593Y218948D02*
X555084Y218948D01*
M02*
