G04 EAGLE Gerber RS-274X export*
G75*
%MOMM*%
%FSLAX34Y34*%
%LPD*%
%INSoldermask Top*%
%IPPOS*%
%AMOC8*
5,1,8,0,0,1.08239X$1,22.5*%
G01*
%ADD10P,1.649562X8X292.500000*%
%ADD11R,1.500000X1.300000*%
%ADD12R,1.300000X1.500000*%
%ADD13C,0.550000*%
%ADD14R,1.600000X2.350000*%
%ADD15C,0.250000*%
%ADD16R,2.200000X2.600000*%
%ADD17R,1.000000X1.200000*%
%ADD18R,0.762000X1.524000*%
%ADD19C,1.524000*%
%ADD20C,0.959600*%
%ADD21R,0.500000X2.200000*%
%ADD22R,1.000000X1.400000*%
%ADD23C,1.270000*%
%ADD24R,2.200000X0.500000*%
%ADD25R,1.400000X1.000000*%
%ADD26R,1.500000X1.500000*%
%ADD27C,2.095500*%
%ADD28R,2.500000X3.500000*%


D10*
X25400Y482600D03*
X50800Y482600D03*
X25400Y457200D03*
X50800Y457200D03*
X25400Y431800D03*
X50800Y431800D03*
X25400Y406400D03*
X50800Y406400D03*
X25400Y381000D03*
X50800Y381000D03*
X25400Y355600D03*
X50800Y355600D03*
X25400Y330200D03*
X50800Y330200D03*
X25400Y304800D03*
X50800Y304800D03*
X25400Y279400D03*
X50800Y279400D03*
X25400Y254000D03*
X50800Y254000D03*
X25400Y228600D03*
X50800Y228600D03*
X25400Y203200D03*
X50800Y203200D03*
X25400Y177800D03*
X50800Y177800D03*
X25400Y152400D03*
X50800Y152400D03*
X25400Y127000D03*
X50800Y127000D03*
X25400Y101600D03*
X50800Y101600D03*
X25400Y76200D03*
X50800Y76200D03*
X25400Y50800D03*
X50800Y50800D03*
X25400Y25400D03*
X50800Y25400D03*
X635000Y482600D03*
X660400Y482600D03*
X635000Y457200D03*
X660400Y457200D03*
X635000Y431800D03*
X660400Y431800D03*
X635000Y406400D03*
X660400Y406400D03*
X635000Y381000D03*
X660400Y381000D03*
X635000Y355600D03*
X660400Y355600D03*
X635000Y330200D03*
X660400Y330200D03*
X635000Y304800D03*
X660400Y304800D03*
X635000Y279400D03*
X660400Y279400D03*
X635000Y254000D03*
X660400Y254000D03*
X635000Y228600D03*
X660400Y228600D03*
X635000Y203200D03*
X660400Y203200D03*
X635000Y177800D03*
X660400Y177800D03*
X635000Y152400D03*
X660400Y152400D03*
X635000Y127000D03*
X660400Y127000D03*
X635000Y101600D03*
X660400Y101600D03*
X635000Y76200D03*
X660400Y76200D03*
X635000Y50800D03*
X660400Y50800D03*
X635000Y25400D03*
X660400Y25400D03*
D11*
X187960Y305460D03*
X187960Y324460D03*
D12*
X222860Y274320D03*
X203860Y274320D03*
D11*
X180340Y273660D03*
X180340Y254660D03*
D12*
X94640Y264160D03*
X113640Y264160D03*
D13*
X137160Y307760D03*
X137160Y296760D03*
D14*
X137160Y302260D03*
D15*
X125160Y292260D02*
X118660Y292260D01*
X118660Y297260D02*
X125160Y297260D01*
X125160Y302260D02*
X118660Y302260D01*
X118660Y307260D02*
X125160Y307260D01*
X125160Y312260D02*
X118660Y312260D01*
X149160Y312260D02*
X155660Y312260D01*
X155660Y307260D02*
X149160Y307260D01*
X149160Y302260D02*
X155660Y302260D01*
X155660Y297260D02*
X149160Y297260D01*
X149160Y292260D02*
X155660Y292260D01*
D11*
X185420Y351180D03*
X185420Y370180D03*
D16*
X220980Y307740D03*
X220980Y357740D03*
D17*
X150730Y353940D03*
X150730Y336940D03*
X164230Y336940D03*
X164230Y353940D03*
D18*
X303530Y230632D03*
X290830Y230632D03*
X278130Y230632D03*
X265430Y230632D03*
X252730Y230632D03*
X240030Y230632D03*
X227330Y230632D03*
X214630Y230632D03*
X214630Y135128D03*
X227330Y135128D03*
X240030Y135128D03*
X252730Y135128D03*
X265430Y135128D03*
X278130Y135128D03*
X290830Y135128D03*
X303530Y135128D03*
D19*
X180340Y144780D02*
X165100Y144780D01*
X165100Y170180D02*
X180340Y170180D01*
X180340Y195580D02*
X165100Y195580D01*
D20*
X137160Y144780D03*
X137160Y170180D03*
X137160Y195580D03*
D18*
X331470Y135128D03*
X344170Y135128D03*
X356870Y135128D03*
X369570Y135128D03*
X382270Y135128D03*
X394970Y135128D03*
X407670Y135128D03*
X420370Y135128D03*
X420370Y230632D03*
X407670Y230632D03*
X394970Y230632D03*
X382270Y230632D03*
X369570Y230632D03*
X356870Y230632D03*
X344170Y230632D03*
X331470Y230632D03*
D21*
X481330Y211880D03*
X468730Y211880D03*
X456030Y211880D03*
X443330Y211880D03*
X481330Y148800D03*
X468630Y148800D03*
X455930Y148800D03*
X443230Y148800D03*
D22*
X434340Y394540D03*
X443840Y372540D03*
X424840Y372540D03*
D23*
X386080Y271780D03*
X411480Y271780D03*
X411480Y347980D03*
X386080Y347980D03*
X436880Y271780D03*
X462280Y271780D03*
X436880Y347980D03*
X462280Y347980D03*
X568960Y386080D03*
X543560Y386080D03*
X543560Y309880D03*
X568960Y309880D03*
X518160Y386080D03*
X492760Y386080D03*
X518160Y309880D03*
X492760Y309880D03*
D11*
X487680Y407060D03*
X487680Y426060D03*
X464820Y387960D03*
X464820Y368960D03*
D24*
X529800Y189230D03*
X529800Y176630D03*
X529800Y163930D03*
X529800Y151230D03*
X592880Y189230D03*
X592880Y176530D03*
X592880Y163830D03*
X592880Y151130D03*
D25*
X544400Y109220D03*
X522400Y99720D03*
X522400Y118720D03*
D12*
X583540Y109220D03*
X564540Y109220D03*
D19*
X76200Y33020D02*
X76200Y17780D01*
X101600Y17780D02*
X101600Y33020D01*
X127000Y33020D02*
X127000Y17780D01*
X152400Y17780D02*
X152400Y33020D01*
X177800Y33020D02*
X177800Y17780D01*
X203200Y17780D02*
X203200Y33020D01*
X228600Y33020D02*
X228600Y17780D01*
X254000Y17780D02*
X254000Y33020D01*
X279400Y33020D02*
X279400Y17780D01*
X304800Y17780D02*
X304800Y33020D01*
X330200Y33020D02*
X330200Y17780D01*
X355600Y17780D02*
X355600Y33020D01*
X381000Y33020D02*
X381000Y17780D01*
X406400Y17780D02*
X406400Y33020D01*
X431800Y33020D02*
X431800Y17780D01*
X457200Y17780D02*
X457200Y33020D01*
X482600Y33020D02*
X482600Y17780D01*
X508000Y17780D02*
X508000Y33020D01*
X533400Y33020D02*
X533400Y17780D01*
X558800Y17780D02*
X558800Y33020D01*
X584200Y33020D02*
X584200Y17780D01*
X609600Y17780D02*
X609600Y33020D01*
D26*
X96520Y370560D03*
X96520Y335560D03*
X195580Y474700D03*
X195580Y439700D03*
X353060Y347700D03*
X353060Y312700D03*
D22*
X518160Y405560D03*
X508660Y427560D03*
X527660Y427560D03*
D12*
X445160Y426720D03*
X464160Y426720D03*
D27*
X381000Y427038D02*
X381000Y406083D01*
X330200Y406083D02*
X330200Y427038D01*
X279400Y427038D02*
X279400Y406083D01*
D28*
X129540Y414540D03*
X129540Y479540D03*
X289560Y277380D03*
X289560Y342380D03*
M02*
