G04 EAGLE Gerber RS-274X export*
G75*
%MOMM*%
%FSLAX34Y34*%
%LPD*%
%INSolderpaste Top*%
%IPPOS*%
%AMOC8*
5,1,8,0,0,1.08239X$1,22.5*%
G01*
%ADD10R,1.500000X1.300000*%
%ADD11R,1.300000X1.500000*%
%ADD12R,1.600000X2.350000*%
%ADD13C,0.250000*%
%ADD14R,2.200000X2.600000*%
%ADD15R,1.000000X1.200000*%
%ADD16R,0.762000X1.524000*%
%ADD17R,0.500000X2.200000*%
%ADD18R,1.000000X1.400000*%
%ADD19R,2.200000X0.500000*%
%ADD20R,1.400000X1.000000*%
%ADD21R,1.500000X1.500000*%
%ADD22R,2.500000X3.500000*%


D10*
X187960Y305460D03*
X187960Y324460D03*
D11*
X222860Y274320D03*
X203860Y274320D03*
D10*
X180340Y273660D03*
X180340Y254660D03*
D11*
X94640Y264160D03*
X113640Y264160D03*
D12*
X137160Y302260D03*
D13*
X125160Y292260D02*
X118660Y292260D01*
X118660Y297260D02*
X125160Y297260D01*
X125160Y302260D02*
X118660Y302260D01*
X118660Y307260D02*
X125160Y307260D01*
X125160Y312260D02*
X118660Y312260D01*
X149160Y312260D02*
X155660Y312260D01*
X155660Y307260D02*
X149160Y307260D01*
X149160Y302260D02*
X155660Y302260D01*
X155660Y297260D02*
X149160Y297260D01*
X149160Y292260D02*
X155660Y292260D01*
D10*
X185420Y351180D03*
X185420Y370180D03*
D14*
X220980Y307740D03*
X220980Y357740D03*
D15*
X150730Y353940D03*
X150730Y336940D03*
X164230Y336940D03*
X164230Y353940D03*
D16*
X303530Y230632D03*
X290830Y230632D03*
X278130Y230632D03*
X265430Y230632D03*
X252730Y230632D03*
X240030Y230632D03*
X227330Y230632D03*
X214630Y230632D03*
X214630Y135128D03*
X227330Y135128D03*
X240030Y135128D03*
X252730Y135128D03*
X265430Y135128D03*
X278130Y135128D03*
X290830Y135128D03*
X303530Y135128D03*
X331470Y135128D03*
X344170Y135128D03*
X356870Y135128D03*
X369570Y135128D03*
X382270Y135128D03*
X394970Y135128D03*
X407670Y135128D03*
X420370Y135128D03*
X420370Y230632D03*
X407670Y230632D03*
X394970Y230632D03*
X382270Y230632D03*
X369570Y230632D03*
X356870Y230632D03*
X344170Y230632D03*
X331470Y230632D03*
D17*
X481330Y211880D03*
X468730Y211880D03*
X456030Y211880D03*
X443330Y211880D03*
X481330Y148800D03*
X468630Y148800D03*
X455930Y148800D03*
X443230Y148800D03*
D18*
X434340Y394540D03*
X443840Y372540D03*
X424840Y372540D03*
D10*
X487680Y407060D03*
X487680Y426060D03*
X464820Y387960D03*
X464820Y368960D03*
D19*
X529800Y189230D03*
X529800Y176630D03*
X529800Y163930D03*
X529800Y151230D03*
X592880Y189230D03*
X592880Y176530D03*
X592880Y163830D03*
X592880Y151130D03*
D20*
X544400Y109220D03*
X522400Y99720D03*
X522400Y118720D03*
D11*
X583540Y109220D03*
X564540Y109220D03*
D21*
X96520Y370560D03*
X96520Y335560D03*
X195580Y474700D03*
X195580Y439700D03*
X353060Y347700D03*
X353060Y312700D03*
D18*
X518160Y405560D03*
X508660Y427560D03*
X527660Y427560D03*
D11*
X445160Y426720D03*
X464160Y426720D03*
D22*
X129540Y414540D03*
X129540Y479540D03*
X289560Y277380D03*
X289560Y342380D03*
M02*
