G04 EAGLE Gerber RS-274X export*
G75*
%MOMM*%
%FSLAX34Y34*%
%LPD*%
%INSoldermask Bottom*%
%IPPOS*%
%AMOC8*
5,1,8,0,0,1.08239X$1,22.5*%
G01*
%ADD10P,1.649562X8X292.500000*%
%ADD11C,0.550000*%
%ADD12R,1.300000X1.500000*%
%ADD13C,1.524000*%
%ADD14C,0.959600*%
%ADD15C,1.270000*%
%ADD16R,1.500000X1.300000*%
%ADD17C,2.095500*%


D10*
X25400Y482600D03*
X50800Y482600D03*
X25400Y457200D03*
X50800Y457200D03*
X25400Y431800D03*
X50800Y431800D03*
X25400Y406400D03*
X50800Y406400D03*
X25400Y381000D03*
X50800Y381000D03*
X25400Y355600D03*
X50800Y355600D03*
X25400Y330200D03*
X50800Y330200D03*
X25400Y304800D03*
X50800Y304800D03*
X25400Y279400D03*
X50800Y279400D03*
X25400Y254000D03*
X50800Y254000D03*
X25400Y228600D03*
X50800Y228600D03*
X25400Y203200D03*
X50800Y203200D03*
X25400Y177800D03*
X50800Y177800D03*
X25400Y152400D03*
X50800Y152400D03*
X25400Y127000D03*
X50800Y127000D03*
X25400Y101600D03*
X50800Y101600D03*
X25400Y76200D03*
X50800Y76200D03*
X25400Y50800D03*
X50800Y50800D03*
X25400Y25400D03*
X50800Y25400D03*
X635000Y482600D03*
X660400Y482600D03*
X635000Y457200D03*
X660400Y457200D03*
X635000Y431800D03*
X660400Y431800D03*
X635000Y406400D03*
X660400Y406400D03*
X635000Y381000D03*
X660400Y381000D03*
X635000Y355600D03*
X660400Y355600D03*
X635000Y330200D03*
X660400Y330200D03*
X635000Y304800D03*
X660400Y304800D03*
X635000Y279400D03*
X660400Y279400D03*
X635000Y254000D03*
X660400Y254000D03*
X635000Y228600D03*
X660400Y228600D03*
X635000Y203200D03*
X660400Y203200D03*
X635000Y177800D03*
X660400Y177800D03*
X635000Y152400D03*
X660400Y152400D03*
X635000Y127000D03*
X660400Y127000D03*
X635000Y101600D03*
X660400Y101600D03*
X635000Y76200D03*
X660400Y76200D03*
X635000Y50800D03*
X660400Y50800D03*
X635000Y25400D03*
X660400Y25400D03*
D11*
X137160Y307760D03*
X137160Y296760D03*
D12*
X102260Y60960D03*
X121260Y60960D03*
D13*
X165100Y144780D02*
X180340Y144780D01*
X180340Y170180D02*
X165100Y170180D01*
X165100Y195580D02*
X180340Y195580D01*
D14*
X137160Y144780D03*
X137160Y170180D03*
X137160Y195580D03*
D15*
X386080Y271780D03*
X411480Y271780D03*
X411480Y347980D03*
X386080Y347980D03*
X436880Y271780D03*
X462280Y271780D03*
X436880Y347980D03*
X462280Y347980D03*
X568960Y386080D03*
X543560Y386080D03*
X543560Y309880D03*
X568960Y309880D03*
X518160Y386080D03*
X492760Y386080D03*
X518160Y309880D03*
X492760Y309880D03*
D13*
X76200Y33020D02*
X76200Y17780D01*
X101600Y17780D02*
X101600Y33020D01*
X127000Y33020D02*
X127000Y17780D01*
X152400Y17780D02*
X152400Y33020D01*
X177800Y33020D02*
X177800Y17780D01*
X203200Y17780D02*
X203200Y33020D01*
X228600Y33020D02*
X228600Y17780D01*
X254000Y17780D02*
X254000Y33020D01*
X279400Y33020D02*
X279400Y17780D01*
X304800Y17780D02*
X304800Y33020D01*
X330200Y33020D02*
X330200Y17780D01*
X355600Y17780D02*
X355600Y33020D01*
X381000Y33020D02*
X381000Y17780D01*
X406400Y17780D02*
X406400Y33020D01*
X431800Y33020D02*
X431800Y17780D01*
X457200Y17780D02*
X457200Y33020D01*
X482600Y33020D02*
X482600Y17780D01*
X508000Y17780D02*
X508000Y33020D01*
X533400Y33020D02*
X533400Y17780D01*
X558800Y17780D02*
X558800Y33020D01*
X584200Y33020D02*
X584200Y17780D01*
X609600Y17780D02*
X609600Y33020D01*
D16*
X353060Y310540D03*
X353060Y329540D03*
X195580Y437540D03*
X195580Y456540D03*
X96520Y333400D03*
X96520Y352400D03*
D17*
X381000Y406083D02*
X381000Y427038D01*
X330200Y427038D02*
X330200Y406083D01*
X279400Y406083D02*
X279400Y427038D01*
D12*
X286360Y157480D03*
X267360Y157480D03*
X387960Y208280D03*
X368960Y208280D03*
D16*
X480060Y192380D03*
X480060Y173380D03*
D12*
X431140Y325120D03*
X412140Y325120D03*
X523900Y332740D03*
X542900Y332740D03*
X216560Y208280D03*
X235560Y208280D03*
X418440Y157480D03*
X399440Y157480D03*
D16*
X457200Y173380D03*
X457200Y192380D03*
D12*
X461620Y294640D03*
X442620Y294640D03*
X493420Y363220D03*
X512420Y363220D03*
X573380Y205740D03*
X554380Y205740D03*
M02*
